<mxfile host="app.diagrams.net" modified="2023-10-11T10:07:05.044Z" agent="Mozilla/5.0 (Macintosh; Intel Mac OS X 10_15_7) AppleWebKit/537.36 (KHTML, like Gecko) Chrome/116.0.0.0 Safari/537.36" etag="fkykoIJiX0l7kGnNF_Z_" version="22.0.4" type="device">
  <diagram name="Page-1" id="3hGJmoj-orTdDMjbY5x5">
    <mxGraphModel dx="2462" dy="969" grid="1" gridSize="10" guides="1" tooltips="1" connect="1" arrows="1" fold="1" page="1" pageScale="1" pageWidth="827" pageHeight="1169" math="0" shadow="0">
      <root>
        <mxCell id="0" />
        <mxCell id="1" parent="0" />
        <mxCell id="sa7XXo4Z0BAsTt5Hyaze-252" value="" style="rounded=0;whiteSpace=wrap;html=1;fillColor=none;" vertex="1" parent="1">
          <mxGeometry x="240" y="3860" width="430" height="240" as="geometry" />
        </mxCell>
        <mxCell id="2jY6_2lJNfAR5JcigIlx-111" value="" style="rounded=0;whiteSpace=wrap;html=1;fillColor=none;" parent="1" vertex="1">
          <mxGeometry x="390" y="640" width="210" height="340" as="geometry" />
        </mxCell>
        <mxCell id="2jY6_2lJNfAR5JcigIlx-311" value="" style="endArrow=classic;html=1;rounded=0;" parent="1" edge="1">
          <mxGeometry width="50" height="50" relative="1" as="geometry">
            <mxPoint x="260" y="2340" as="sourcePoint" />
            <mxPoint x="420" y="2600" as="targetPoint" />
            <Array as="points">
              <mxPoint x="260" y="2600" />
              <mxPoint x="300" y="2600" />
              <mxPoint x="300" y="2340" />
              <mxPoint x="340" y="2340" />
              <mxPoint x="340" y="2600" />
              <mxPoint x="380" y="2600" />
              <mxPoint x="380" y="2340" />
              <mxPoint x="420" y="2340" />
            </Array>
          </mxGeometry>
        </mxCell>
        <mxCell id="2jY6_2lJNfAR5JcigIlx-250" value="" style="shape=flexArrow;endArrow=classic;html=1;rounded=0;" parent="1" source="2jY6_2lJNfAR5JcigIlx-205" edge="1">
          <mxGeometry width="50" height="50" relative="1" as="geometry">
            <mxPoint x="390" y="2060" as="sourcePoint" />
            <mxPoint x="580" y="1950" as="targetPoint" />
          </mxGeometry>
        </mxCell>
        <mxCell id="2jY6_2lJNfAR5JcigIlx-109" value="" style="rounded=0;whiteSpace=wrap;html=1;fillColor=none;" parent="1" vertex="1">
          <mxGeometry x="160" y="490" width="210" height="490" as="geometry" />
        </mxCell>
        <mxCell id="2jY6_2lJNfAR5JcigIlx-124" value="" style="rounded=0;whiteSpace=wrap;html=1;fillColor=none;" parent="1" vertex="1">
          <mxGeometry x="580" y="1350" width="210" height="320" as="geometry" />
        </mxCell>
        <mxCell id="2jY6_2lJNfAR5JcigIlx-168" value="" style="rounded=0;whiteSpace=wrap;html=1;fillColor=none;" parent="1" vertex="1">
          <mxGeometry x="360" y="1350" width="210" height="320" as="geometry" />
        </mxCell>
        <mxCell id="2jY6_2lJNfAR5JcigIlx-178" value="" style="rounded=0;whiteSpace=wrap;html=1;fillColor=none;" parent="1" vertex="1">
          <mxGeometry x="140" y="1350" width="210" height="320" as="geometry" />
        </mxCell>
        <mxCell id="2jY6_2lJNfAR5JcigIlx-113" value="" style="rounded=0;whiteSpace=wrap;html=1;fillColor=none;" parent="1" vertex="1">
          <mxGeometry x="610" y="640" width="210" height="340" as="geometry" />
        </mxCell>
        <mxCell id="2jY6_2lJNfAR5JcigIlx-17" style="edgeStyle=orthogonalEdgeStyle;rounded=0;orthogonalLoop=1;jettySize=auto;html=1;exitX=0.5;exitY=0;exitDx=0;exitDy=0;entryX=0.5;entryY=1;entryDx=0;entryDy=0;fillColor=#0050ef;strokeColor=#001DBC;" parent="1" source="sa7XXo4Z0BAsTt5Hyaze-91" target="2jY6_2lJNfAR5JcigIlx-11" edge="1">
          <mxGeometry relative="1" as="geometry" />
        </mxCell>
        <mxCell id="2jY6_2lJNfAR5JcigIlx-2" value="hidden&lt;br style=&quot;border-color: var(--border-color);&quot;&gt;activations" style="ellipse;whiteSpace=wrap;html=1;" parent="1" vertex="1">
          <mxGeometry x="300" y="360" width="80" height="40" as="geometry" />
        </mxCell>
        <mxCell id="2jY6_2lJNfAR5JcigIlx-10" style="rounded=0;orthogonalLoop=1;jettySize=auto;html=1;exitX=0.5;exitY=0;exitDx=0;exitDy=0;entryX=0.5;entryY=1;entryDx=0;entryDy=0;fillColor=#f8cecc;strokeColor=#b85450;" parent="1" source="2jY6_2lJNfAR5JcigIlx-7" target="2jY6_2lJNfAR5JcigIlx-2" edge="1">
          <mxGeometry relative="1" as="geometry" />
        </mxCell>
        <mxCell id="2jY6_2lJNfAR5JcigIlx-7" value="char 1 integer input" style="rounded=1;whiteSpace=wrap;html=1;" parent="1" vertex="1">
          <mxGeometry x="160" y="410" width="120" height="40" as="geometry" />
        </mxCell>
        <mxCell id="2jY6_2lJNfAR5JcigIlx-8" value="char 2 integer input" style="rounded=1;whiteSpace=wrap;html=1;" parent="1" vertex="1">
          <mxGeometry x="160" y="330" width="120" height="40" as="geometry" />
        </mxCell>
        <mxCell id="2jY6_2lJNfAR5JcigIlx-9" value="char 3 integer input" style="rounded=1;whiteSpace=wrap;html=1;" parent="1" vertex="1">
          <mxGeometry x="160" y="250" width="120" height="40" as="geometry" />
        </mxCell>
        <mxCell id="2jY6_2lJNfAR5JcigIlx-18" style="edgeStyle=orthogonalEdgeStyle;rounded=0;orthogonalLoop=1;jettySize=auto;html=1;exitX=0.5;exitY=0;exitDx=0;exitDy=0;fillColor=#0050ef;strokeColor=#001DBC;" parent="1" source="2jY6_2lJNfAR5JcigIlx-11" edge="1">
          <mxGeometry relative="1" as="geometry">
            <mxPoint x="340.2068965517242" y="240" as="targetPoint" />
          </mxGeometry>
        </mxCell>
        <mxCell id="2jY6_2lJNfAR5JcigIlx-11" value="hidden&lt;br style=&quot;border-color: var(--border-color);&quot;&gt;activations" style="ellipse;whiteSpace=wrap;html=1;" parent="1" vertex="1">
          <mxGeometry x="300" y="280" width="80" height="40" as="geometry" />
        </mxCell>
        <mxCell id="2jY6_2lJNfAR5JcigIlx-19" style="edgeStyle=orthogonalEdgeStyle;rounded=0;orthogonalLoop=1;jettySize=auto;html=1;exitX=0.5;exitY=0;exitDx=0;exitDy=0;entryX=0.5;entryY=1;entryDx=0;entryDy=0;fillColor=#ffe6cc;strokeColor=#d79b00;" parent="1" source="2jY6_2lJNfAR5JcigIlx-13" target="2jY6_2lJNfAR5JcigIlx-15" edge="1">
          <mxGeometry relative="1" as="geometry" />
        </mxCell>
        <mxCell id="2jY6_2lJNfAR5JcigIlx-13" value="hidden&lt;br&gt;activations" style="ellipse;whiteSpace=wrap;html=1;" parent="1" vertex="1">
          <mxGeometry x="300" y="200" width="80" height="40" as="geometry" />
        </mxCell>
        <mxCell id="2jY6_2lJNfAR5JcigIlx-15" value="output activations" style="rhombus;whiteSpace=wrap;html=1;" parent="1" vertex="1">
          <mxGeometry x="230" y="140" width="220" height="40" as="geometry" />
        </mxCell>
        <mxCell id="2jY6_2lJNfAR5JcigIlx-20" value="" style="endArrow=classic;html=1;rounded=0;fillColor=#ffe6cc;strokeColor=#d79b00;" parent="1" edge="1">
          <mxGeometry width="50" height="50" relative="1" as="geometry">
            <mxPoint y="605" as="sourcePoint" />
            <mxPoint x="40" y="605" as="targetPoint" />
          </mxGeometry>
        </mxCell>
        <mxCell id="2jY6_2lJNfAR5JcigIlx-21" value="hidden-to-out" style="text;html=1;strokeColor=none;fillColor=none;align=center;verticalAlign=middle;whiteSpace=wrap;rounded=0;" parent="1" vertex="1">
          <mxGeometry x="40" y="590" width="80" height="30" as="geometry" />
        </mxCell>
        <mxCell id="2jY6_2lJNfAR5JcigIlx-22" value="input-to-hidden (embedding)" style="text;html=1;strokeColor=none;fillColor=none;align=center;verticalAlign=middle;whiteSpace=wrap;rounded=0;" parent="1" vertex="1">
          <mxGeometry x="40" y="630" width="90" height="30" as="geometry" />
        </mxCell>
        <mxCell id="2jY6_2lJNfAR5JcigIlx-23" value="" style="endArrow=classic;html=1;rounded=0;fillColor=#f8cecc;strokeColor=#b85450;" parent="1" edge="1">
          <mxGeometry width="50" height="50" relative="1" as="geometry">
            <mxPoint y="645" as="sourcePoint" />
            <mxPoint x="40" y="645" as="targetPoint" />
          </mxGeometry>
        </mxCell>
        <mxCell id="2jY6_2lJNfAR5JcigIlx-24" value="hidden-to-hidden" style="text;html=1;strokeColor=none;fillColor=none;align=center;verticalAlign=middle;whiteSpace=wrap;rounded=0;" parent="1" vertex="1">
          <mxGeometry x="40" y="670" width="100" height="30" as="geometry" />
        </mxCell>
        <mxCell id="2jY6_2lJNfAR5JcigIlx-25" value="" style="endArrow=classic;html=1;rounded=0;fillColor=#0050ef;strokeColor=#001DBC;" parent="1" edge="1">
          <mxGeometry width="50" height="50" relative="1" as="geometry">
            <mxPoint y="685" as="sourcePoint" />
            <mxPoint x="40" y="685" as="targetPoint" />
          </mxGeometry>
        </mxCell>
        <mxCell id="2jY6_2lJNfAR5JcigIlx-12" style="rounded=0;orthogonalLoop=1;jettySize=auto;html=1;exitX=1;exitY=0.5;exitDx=0;exitDy=0;fillColor=#f8cecc;strokeColor=#b85450;entryX=0;entryY=0.5;entryDx=0;entryDy=0;" parent="1" source="2jY6_2lJNfAR5JcigIlx-8" target="sa7XXo4Z0BAsTt5Hyaze-91" edge="1">
          <mxGeometry relative="1" as="geometry">
            <mxPoint x="340" y="350" as="targetPoint" />
          </mxGeometry>
        </mxCell>
        <mxCell id="2jY6_2lJNfAR5JcigIlx-14" style="rounded=0;orthogonalLoop=1;jettySize=auto;html=1;exitX=1;exitY=0.5;exitDx=0;exitDy=0;fillColor=#f8cecc;strokeColor=#b85450;entryX=0;entryY=0.5;entryDx=0;entryDy=0;" parent="1" source="2jY6_2lJNfAR5JcigIlx-9" target="sa7XXo4Z0BAsTt5Hyaze-93" edge="1">
          <mxGeometry relative="1" as="geometry">
            <mxPoint x="340" y="270" as="targetPoint" />
          </mxGeometry>
        </mxCell>
        <mxCell id="2jY6_2lJNfAR5JcigIlx-44" style="edgeStyle=orthogonalEdgeStyle;rounded=0;orthogonalLoop=1;jettySize=auto;html=1;exitX=0.5;exitY=0;exitDx=0;exitDy=0;entryX=0.5;entryY=1;entryDx=0;entryDy=0;fillColor=#0050ef;strokeColor=#001DBC;" parent="1" source="2jY6_2lJNfAR5JcigIlx-45" target="2jY6_2lJNfAR5JcigIlx-51" edge="1">
          <mxGeometry relative="1" as="geometry" />
        </mxCell>
        <mxCell id="2jY6_2lJNfAR5JcigIlx-45" value="hidden&lt;br style=&quot;border-color: var(--border-color);&quot;&gt;activations" style="ellipse;whiteSpace=wrap;html=1;" parent="1" vertex="1">
          <mxGeometry x="240" y="840" width="80" height="40" as="geometry" />
        </mxCell>
        <mxCell id="2jY6_2lJNfAR5JcigIlx-46" style="rounded=0;orthogonalLoop=1;jettySize=auto;html=1;exitX=1;exitY=0.5;exitDx=0;exitDy=0;entryX=0;entryY=0.5;entryDx=0;entryDy=0;fillColor=#f8cecc;strokeColor=#b85450;" parent="1" source="2jY6_2lJNfAR5JcigIlx-47" target="sa7XXo4Z0BAsTt5Hyaze-101" edge="1">
          <mxGeometry relative="1" as="geometry" />
        </mxCell>
        <mxCell id="2jY6_2lJNfAR5JcigIlx-47" value="&quot;.&quot;&amp;nbsp;" style="rounded=1;whiteSpace=wrap;html=1;" parent="1" vertex="1">
          <mxGeometry x="170" y="890" width="50" height="40" as="geometry" />
        </mxCell>
        <mxCell id="2jY6_2lJNfAR5JcigIlx-48" value="&quot;.&quot;&amp;nbsp;" style="rounded=1;whiteSpace=wrap;html=1;" parent="1" vertex="1">
          <mxGeometry x="170" y="810" width="50" height="40" as="geometry" />
        </mxCell>
        <mxCell id="2jY6_2lJNfAR5JcigIlx-49" value="&quot;.&quot;&amp;nbsp;" style="rounded=1;whiteSpace=wrap;html=1;" parent="1" vertex="1">
          <mxGeometry x="170" y="730" width="50" height="40" as="geometry" />
        </mxCell>
        <mxCell id="2jY6_2lJNfAR5JcigIlx-50" style="edgeStyle=orthogonalEdgeStyle;rounded=0;orthogonalLoop=1;jettySize=auto;html=1;exitX=0.5;exitY=0;exitDx=0;exitDy=0;fillColor=#0050ef;strokeColor=#001DBC;" parent="1" source="sa7XXo4Z0BAsTt5Hyaze-98" edge="1">
          <mxGeometry relative="1" as="geometry">
            <mxPoint x="280.2068965517242" y="720" as="targetPoint" />
          </mxGeometry>
        </mxCell>
        <mxCell id="2jY6_2lJNfAR5JcigIlx-51" value="hidden&lt;br style=&quot;border-color: var(--border-color);&quot;&gt;activations" style="ellipse;whiteSpace=wrap;html=1;" parent="1" vertex="1">
          <mxGeometry x="240" y="760" width="80" height="40" as="geometry" />
        </mxCell>
        <mxCell id="2jY6_2lJNfAR5JcigIlx-52" style="edgeStyle=orthogonalEdgeStyle;rounded=0;orthogonalLoop=1;jettySize=auto;html=1;exitX=0.5;exitY=0;exitDx=0;exitDy=0;entryX=0.5;entryY=1;entryDx=0;entryDy=0;fillColor=#ffe6cc;strokeColor=#d79b00;" parent="1" source="2jY6_2lJNfAR5JcigIlx-53" target="2jY6_2lJNfAR5JcigIlx-54" edge="1">
          <mxGeometry relative="1" as="geometry" />
        </mxCell>
        <mxCell id="2jY6_2lJNfAR5JcigIlx-53" value="hidden&lt;br&gt;activations" style="ellipse;whiteSpace=wrap;html=1;" parent="1" vertex="1">
          <mxGeometry x="240" y="680" width="80" height="40" as="geometry" />
        </mxCell>
        <mxCell id="2jY6_2lJNfAR5JcigIlx-103" style="edgeStyle=orthogonalEdgeStyle;rounded=0;orthogonalLoop=1;jettySize=auto;html=1;exitX=0.5;exitY=0;exitDx=0;exitDy=0;entryX=0.5;entryY=1;entryDx=0;entryDy=0;dashed=1;endArrow=block;endFill=1;" parent="1" source="2jY6_2lJNfAR5JcigIlx-54" target="2jY6_2lJNfAR5JcigIlx-102" edge="1">
          <mxGeometry relative="1" as="geometry" />
        </mxCell>
        <mxCell id="2jY6_2lJNfAR5JcigIlx-54" value="output activations" style="rhombus;whiteSpace=wrap;html=1;" parent="1" vertex="1">
          <mxGeometry x="200" y="620" width="160" height="40" as="geometry" />
        </mxCell>
        <mxCell id="2jY6_2lJNfAR5JcigIlx-55" style="rounded=0;orthogonalLoop=1;jettySize=auto;html=1;exitX=1;exitY=0.5;exitDx=0;exitDy=0;entryX=0;entryY=0.5;entryDx=0;entryDy=0;fillColor=#f8cecc;strokeColor=#b85450;" parent="1" source="2jY6_2lJNfAR5JcigIlx-48" target="sa7XXo4Z0BAsTt5Hyaze-100" edge="1">
          <mxGeometry relative="1" as="geometry" />
        </mxCell>
        <mxCell id="2jY6_2lJNfAR5JcigIlx-56" style="rounded=0;orthogonalLoop=1;jettySize=auto;html=1;exitX=1;exitY=0.5;exitDx=0;exitDy=0;entryX=0;entryY=0.5;entryDx=0;entryDy=0;fillColor=#f8cecc;strokeColor=#b85450;" parent="1" source="2jY6_2lJNfAR5JcigIlx-49" target="sa7XXo4Z0BAsTt5Hyaze-98" edge="1">
          <mxGeometry relative="1" as="geometry" />
        </mxCell>
        <mxCell id="2jY6_2lJNfAR5JcigIlx-57" style="edgeStyle=orthogonalEdgeStyle;rounded=0;orthogonalLoop=1;jettySize=auto;html=1;exitX=0.5;exitY=0;exitDx=0;exitDy=0;endArrow=block;endFill=1;fillColor=#0050ef;strokeColor=#001DBC;" parent="1" source="sa7XXo4Z0BAsTt5Hyaze-101" edge="1">
          <mxGeometry relative="1" as="geometry">
            <mxPoint x="280" y="880" as="targetPoint" />
          </mxGeometry>
        </mxCell>
        <mxCell id="2jY6_2lJNfAR5JcigIlx-58" value="dummy activations" style="shape=hexagon;perimeter=hexagonPerimeter2;whiteSpace=wrap;html=1;fixedSize=1;" parent="1" vertex="1">
          <mxGeometry x="240" y="920" width="80" height="40" as="geometry" />
        </mxCell>
        <mxCell id="2jY6_2lJNfAR5JcigIlx-59" value="" style="endArrow=block;html=1;rounded=0;dashed=1;endFill=1;" parent="1" edge="1">
          <mxGeometry width="50" height="50" relative="1" as="geometry">
            <mxPoint y="725" as="sourcePoint" />
            <mxPoint x="40" y="725" as="targetPoint" />
          </mxGeometry>
        </mxCell>
        <mxCell id="2jY6_2lJNfAR5JcigIlx-61" value="pass values" style="text;html=1;strokeColor=none;fillColor=none;align=center;verticalAlign=middle;whiteSpace=wrap;rounded=0;" parent="1" vertex="1">
          <mxGeometry x="42" y="710" width="70" height="30" as="geometry" />
        </mxCell>
        <mxCell id="2jY6_2lJNfAR5JcigIlx-98" style="edgeStyle=orthogonalEdgeStyle;rounded=0;orthogonalLoop=1;jettySize=auto;html=1;exitX=1;exitY=0.5;exitDx=0;exitDy=0;entryX=0.5;entryY=1;entryDx=0;entryDy=0;dashed=1;" parent="1" source="2jY6_2lJNfAR5JcigIlx-79" target="sa7XXo4Z0BAsTt5Hyaze-106" edge="1">
          <mxGeometry relative="1" as="geometry">
            <Array as="points">
              <mxPoint x="580" y="860" />
              <mxPoint x="580" y="950" />
              <mxPoint x="730" y="950" />
            </Array>
          </mxGeometry>
        </mxCell>
        <mxCell id="2jY6_2lJNfAR5JcigIlx-79" value="hidden&lt;br style=&quot;border-color: var(--border-color);&quot;&gt;activations" style="ellipse;whiteSpace=wrap;html=1;" parent="1" vertex="1">
          <mxGeometry x="470" y="840" width="80" height="40" as="geometry" />
        </mxCell>
        <mxCell id="2jY6_2lJNfAR5JcigIlx-80" style="rounded=0;orthogonalLoop=1;jettySize=auto;html=1;exitX=1;exitY=0.5;exitDx=0;exitDy=0;entryX=0;entryY=0.5;entryDx=0;entryDy=0;fillColor=#f8cecc;strokeColor=#b85450;" parent="1" source="2jY6_2lJNfAR5JcigIlx-81" target="sa7XXo4Z0BAsTt5Hyaze-103" edge="1">
          <mxGeometry relative="1" as="geometry" />
        </mxCell>
        <mxCell id="2jY6_2lJNfAR5JcigIlx-81" value="&quot;Y&quot;&amp;nbsp;" style="rounded=1;whiteSpace=wrap;html=1;" parent="1" vertex="1">
          <mxGeometry x="400" y="890" width="50" height="40" as="geometry" />
        </mxCell>
        <mxCell id="2jY6_2lJNfAR5JcigIlx-86" style="edgeStyle=orthogonalEdgeStyle;rounded=0;orthogonalLoop=1;jettySize=auto;html=1;exitX=0.5;exitY=0;exitDx=0;exitDy=0;entryX=0.5;entryY=1;entryDx=0;entryDy=0;fillColor=#ffe6cc;strokeColor=#d79b00;" parent="1" target="2jY6_2lJNfAR5JcigIlx-88" edge="1">
          <mxGeometry relative="1" as="geometry">
            <mxPoint x="510" y="840" as="sourcePoint" />
          </mxGeometry>
        </mxCell>
        <mxCell id="2jY6_2lJNfAR5JcigIlx-107" style="edgeStyle=orthogonalEdgeStyle;rounded=0;orthogonalLoop=1;jettySize=auto;html=1;exitX=0.5;exitY=0;exitDx=0;exitDy=0;entryX=0.5;entryY=1;entryDx=0;entryDy=0;dashed=1;endArrow=block;endFill=1;" parent="1" source="2jY6_2lJNfAR5JcigIlx-88" target="2jY6_2lJNfAR5JcigIlx-105" edge="1">
          <mxGeometry relative="1" as="geometry" />
        </mxCell>
        <mxCell id="2jY6_2lJNfAR5JcigIlx-88" value="output activations" style="rhombus;whiteSpace=wrap;html=1;" parent="1" vertex="1">
          <mxGeometry x="430" y="780" width="160" height="40" as="geometry" />
        </mxCell>
        <mxCell id="2jY6_2lJNfAR5JcigIlx-91" style="edgeStyle=orthogonalEdgeStyle;rounded=0;orthogonalLoop=1;jettySize=auto;html=1;exitX=1;exitY=0.5;exitDx=0;exitDy=0;dashed=1;endArrow=block;endFill=1;entryX=0.5;entryY=1;entryDx=0;entryDy=0;" parent="1" edge="1" target="sa7XXo4Z0BAsTt5Hyaze-103">
          <mxGeometry relative="1" as="geometry">
            <mxPoint x="510" y="880" as="targetPoint" />
            <mxPoint x="320" y="700" as="sourcePoint" />
            <Array as="points">
              <mxPoint x="350" y="700" />
              <mxPoint x="350" y="950" />
              <mxPoint x="510" y="950" />
            </Array>
          </mxGeometry>
        </mxCell>
        <mxCell id="2jY6_2lJNfAR5JcigIlx-93" value="hidden&lt;br style=&quot;border-color: var(--border-color);&quot;&gt;activations" style="ellipse;whiteSpace=wrap;html=1;" parent="1" vertex="1">
          <mxGeometry x="690" y="840" width="80" height="40" as="geometry" />
        </mxCell>
        <mxCell id="2jY6_2lJNfAR5JcigIlx-94" style="rounded=0;orthogonalLoop=1;jettySize=auto;html=1;exitX=1;exitY=0.5;exitDx=0;exitDy=0;entryX=0;entryY=0.5;entryDx=0;entryDy=0;fillColor=#f8cecc;strokeColor=#b85450;" parent="1" source="2jY6_2lJNfAR5JcigIlx-95" target="sa7XXo4Z0BAsTt5Hyaze-106" edge="1">
          <mxGeometry relative="1" as="geometry" />
        </mxCell>
        <mxCell id="2jY6_2lJNfAR5JcigIlx-95" value="&quot;U&quot;&amp;nbsp;" style="rounded=1;whiteSpace=wrap;html=1;" parent="1" vertex="1">
          <mxGeometry x="620" y="890" width="50" height="40" as="geometry" />
        </mxCell>
        <mxCell id="2jY6_2lJNfAR5JcigIlx-96" style="edgeStyle=orthogonalEdgeStyle;rounded=0;orthogonalLoop=1;jettySize=auto;html=1;exitX=0.5;exitY=0;exitDx=0;exitDy=0;entryX=0.5;entryY=1;entryDx=0;entryDy=0;fillColor=#ffe6cc;strokeColor=#d79b00;" parent="1" target="2jY6_2lJNfAR5JcigIlx-97" edge="1">
          <mxGeometry relative="1" as="geometry">
            <mxPoint x="730" y="840" as="sourcePoint" />
          </mxGeometry>
        </mxCell>
        <mxCell id="2jY6_2lJNfAR5JcigIlx-108" style="edgeStyle=orthogonalEdgeStyle;rounded=0;orthogonalLoop=1;jettySize=auto;html=1;entryX=0.5;entryY=1;entryDx=0;entryDy=0;dashed=1;endArrow=block;endFill=1;" parent="1" source="2jY6_2lJNfAR5JcigIlx-97" target="2jY6_2lJNfAR5JcigIlx-106" edge="1">
          <mxGeometry relative="1" as="geometry" />
        </mxCell>
        <mxCell id="2jY6_2lJNfAR5JcigIlx-97" value="output activations" style="rhombus;whiteSpace=wrap;html=1;" parent="1" vertex="1">
          <mxGeometry x="650" y="780" width="160" height="40" as="geometry" />
        </mxCell>
        <mxCell id="2jY6_2lJNfAR5JcigIlx-102" value="cross entropy with label &quot;Y&quot;" style="whiteSpace=wrap;html=1;aspect=fixed;fillColor=#f5f5f5;fontColor=#333333;strokeColor=#666666;" parent="1" vertex="1">
          <mxGeometry x="240" y="520" width="80" height="80" as="geometry" />
        </mxCell>
        <mxCell id="2jY6_2lJNfAR5JcigIlx-105" value="cross entropy with label &quot;U&quot;" style="whiteSpace=wrap;html=1;aspect=fixed;fillColor=#f5f5f5;fontColor=#333333;strokeColor=#666666;" parent="1" vertex="1">
          <mxGeometry x="470" y="680" width="80" height="80" as="geometry" />
        </mxCell>
        <mxCell id="2jY6_2lJNfAR5JcigIlx-106" value="cross entropy with label &quot;H&quot;" style="whiteSpace=wrap;html=1;aspect=fixed;fillColor=#f5f5f5;fontColor=#333333;strokeColor=#666666;" parent="1" vertex="1">
          <mxGeometry x="690" y="680" width="80" height="80" as="geometry" />
        </mxCell>
        <mxCell id="2jY6_2lJNfAR5JcigIlx-110" value="First Sample" style="text;html=1;align=center;verticalAlign=middle;whiteSpace=wrap;rounded=0;strokeColor=default;" parent="1" vertex="1">
          <mxGeometry x="160" y="490" width="210" height="20" as="geometry" />
        </mxCell>
        <mxCell id="2jY6_2lJNfAR5JcigIlx-112" value="Second Sample" style="text;html=1;align=center;verticalAlign=middle;whiteSpace=wrap;rounded=0;strokeColor=default;" parent="1" vertex="1">
          <mxGeometry x="390" y="640" width="210" height="20" as="geometry" />
        </mxCell>
        <mxCell id="2jY6_2lJNfAR5JcigIlx-114" value="Third Sample" style="text;html=1;align=center;verticalAlign=middle;whiteSpace=wrap;rounded=0;strokeColor=default;" parent="1" vertex="1">
          <mxGeometry x="610" y="640" width="210" height="20" as="geometry" />
        </mxCell>
        <mxCell id="2jY6_2lJNfAR5JcigIlx-149" style="edgeStyle=orthogonalEdgeStyle;rounded=0;orthogonalLoop=1;jettySize=auto;html=1;exitX=1;exitY=0.5;exitDx=0;exitDy=0;entryX=0.5;entryY=1;entryDx=0;entryDy=0;dashed=1;" parent="1" source="2jY6_2lJNfAR5JcigIlx-150" target="sa7XXo4Z0BAsTt5Hyaze-114" edge="1">
          <mxGeometry relative="1" as="geometry">
            <Array as="points">
              <mxPoint x="550" y="1570" />
              <mxPoint x="550" y="1660" />
              <mxPoint x="700" y="1660" />
            </Array>
          </mxGeometry>
        </mxCell>
        <mxCell id="2jY6_2lJNfAR5JcigIlx-150" value="hidden&lt;br style=&quot;border-color: var(--border-color);&quot;&gt;activations" style="ellipse;whiteSpace=wrap;html=1;" parent="1" vertex="1">
          <mxGeometry x="440" y="1550" width="80" height="40" as="geometry" />
        </mxCell>
        <mxCell id="2jY6_2lJNfAR5JcigIlx-151" style="rounded=0;orthogonalLoop=1;jettySize=auto;html=1;exitX=1;exitY=0.5;exitDx=0;exitDy=0;entryX=0;entryY=0.5;entryDx=0;entryDy=0;fillColor=#f8cecc;strokeColor=#b85450;" parent="1" source="2jY6_2lJNfAR5JcigIlx-152" target="sa7XXo4Z0BAsTt5Hyaze-112" edge="1">
          <mxGeometry relative="1" as="geometry" />
        </mxCell>
        <mxCell id="2jY6_2lJNfAR5JcigIlx-152" value="&quot;Y&quot;&amp;nbsp;" style="rounded=1;whiteSpace=wrap;html=1;" parent="1" vertex="1">
          <mxGeometry x="370" y="1600" width="50" height="40" as="geometry" />
        </mxCell>
        <mxCell id="2jY6_2lJNfAR5JcigIlx-153" style="edgeStyle=orthogonalEdgeStyle;rounded=0;orthogonalLoop=1;jettySize=auto;html=1;exitX=0.5;exitY=0;exitDx=0;exitDy=0;entryX=0.5;entryY=1;entryDx=0;entryDy=0;fillColor=#ffe6cc;strokeColor=#d79b00;" parent="1" target="2jY6_2lJNfAR5JcigIlx-155" edge="1">
          <mxGeometry relative="1" as="geometry">
            <mxPoint x="480" y="1550" as="sourcePoint" />
          </mxGeometry>
        </mxCell>
        <mxCell id="2jY6_2lJNfAR5JcigIlx-154" style="edgeStyle=orthogonalEdgeStyle;rounded=0;orthogonalLoop=1;jettySize=auto;html=1;exitX=0.5;exitY=0;exitDx=0;exitDy=0;entryX=0.5;entryY=1;entryDx=0;entryDy=0;dashed=1;endArrow=block;endFill=1;" parent="1" source="2jY6_2lJNfAR5JcigIlx-155" target="2jY6_2lJNfAR5JcigIlx-164" edge="1">
          <mxGeometry relative="1" as="geometry" />
        </mxCell>
        <mxCell id="2jY6_2lJNfAR5JcigIlx-155" value="output activations" style="rhombus;whiteSpace=wrap;html=1;" parent="1" vertex="1">
          <mxGeometry x="400" y="1490" width="160" height="40" as="geometry" />
        </mxCell>
        <mxCell id="2jY6_2lJNfAR5JcigIlx-157" value="hidden&lt;br style=&quot;border-color: var(--border-color);&quot;&gt;activations" style="ellipse;whiteSpace=wrap;html=1;" parent="1" vertex="1">
          <mxGeometry x="660" y="1550" width="80" height="40" as="geometry" />
        </mxCell>
        <mxCell id="2jY6_2lJNfAR5JcigIlx-158" style="rounded=0;orthogonalLoop=1;jettySize=auto;html=1;exitX=1;exitY=0.5;exitDx=0;exitDy=0;entryX=0;entryY=0.5;entryDx=0;entryDy=0;fillColor=#f8cecc;strokeColor=#b85450;" parent="1" source="2jY6_2lJNfAR5JcigIlx-159" target="sa7XXo4Z0BAsTt5Hyaze-114" edge="1">
          <mxGeometry relative="1" as="geometry" />
        </mxCell>
        <mxCell id="2jY6_2lJNfAR5JcigIlx-159" value="&quot;U&quot;&amp;nbsp;" style="rounded=1;whiteSpace=wrap;html=1;" parent="1" vertex="1">
          <mxGeometry x="590" y="1600" width="50" height="40" as="geometry" />
        </mxCell>
        <mxCell id="2jY6_2lJNfAR5JcigIlx-160" style="edgeStyle=orthogonalEdgeStyle;rounded=0;orthogonalLoop=1;jettySize=auto;html=1;exitX=0.5;exitY=0;exitDx=0;exitDy=0;entryX=0.5;entryY=1;entryDx=0;entryDy=0;fillColor=#ffe6cc;strokeColor=#d79b00;" parent="1" target="2jY6_2lJNfAR5JcigIlx-162" edge="1">
          <mxGeometry relative="1" as="geometry">
            <mxPoint x="700" y="1550" as="sourcePoint" />
          </mxGeometry>
        </mxCell>
        <mxCell id="2jY6_2lJNfAR5JcigIlx-161" style="edgeStyle=orthogonalEdgeStyle;rounded=0;orthogonalLoop=1;jettySize=auto;html=1;entryX=0.5;entryY=1;entryDx=0;entryDy=0;dashed=1;endArrow=block;endFill=1;" parent="1" source="2jY6_2lJNfAR5JcigIlx-162" target="2jY6_2lJNfAR5JcigIlx-165" edge="1">
          <mxGeometry relative="1" as="geometry" />
        </mxCell>
        <mxCell id="2jY6_2lJNfAR5JcigIlx-162" value="output activations" style="rhombus;whiteSpace=wrap;html=1;" parent="1" vertex="1">
          <mxGeometry x="620" y="1490" width="160" height="40" as="geometry" />
        </mxCell>
        <mxCell id="2jY6_2lJNfAR5JcigIlx-164" value="cross entropy with label &quot;U&quot;" style="whiteSpace=wrap;html=1;aspect=fixed;fillColor=#f5f5f5;fontColor=#333333;strokeColor=#666666;" parent="1" vertex="1">
          <mxGeometry x="440" y="1390" width="80" height="80" as="geometry" />
        </mxCell>
        <mxCell id="2jY6_2lJNfAR5JcigIlx-165" value="cross entropy with label &quot;H&quot;" style="whiteSpace=wrap;html=1;aspect=fixed;fillColor=#f5f5f5;fontColor=#333333;strokeColor=#666666;" parent="1" vertex="1">
          <mxGeometry x="660" y="1390" width="80" height="80" as="geometry" />
        </mxCell>
        <mxCell id="2jY6_2lJNfAR5JcigIlx-169" value="Second Token" style="text;html=1;align=center;verticalAlign=middle;whiteSpace=wrap;rounded=0;strokeColor=default;" parent="1" vertex="1">
          <mxGeometry x="360" y="1350" width="210" height="20" as="geometry" />
        </mxCell>
        <mxCell id="2jY6_2lJNfAR5JcigIlx-170" value="Third Token" style="text;html=1;align=center;verticalAlign=middle;whiteSpace=wrap;rounded=0;strokeColor=default;" parent="1" vertex="1">
          <mxGeometry x="580" y="1350" width="210" height="20" as="geometry" />
        </mxCell>
        <mxCell id="2jY6_2lJNfAR5JcigIlx-184" style="edgeStyle=orthogonalEdgeStyle;rounded=0;orthogonalLoop=1;jettySize=auto;html=1;exitX=1;exitY=0.5;exitDx=0;exitDy=0;entryX=0.5;entryY=1;entryDx=0;entryDy=0;dashed=1;endArrow=block;endFill=1;" parent="1" source="2jY6_2lJNfAR5JcigIlx-171" target="sa7XXo4Z0BAsTt5Hyaze-112" edge="1">
          <mxGeometry relative="1" as="geometry">
            <Array as="points">
              <mxPoint x="320" y="1570" />
              <mxPoint x="320" y="1660" />
              <mxPoint x="480" y="1660" />
            </Array>
          </mxGeometry>
        </mxCell>
        <mxCell id="2jY6_2lJNfAR5JcigIlx-171" value="hidden&lt;br style=&quot;border-color: var(--border-color);&quot;&gt;activations" style="ellipse;whiteSpace=wrap;html=1;" parent="1" vertex="1">
          <mxGeometry x="220" y="1550" width="80" height="40" as="geometry" />
        </mxCell>
        <mxCell id="2jY6_2lJNfAR5JcigIlx-172" style="rounded=0;orthogonalLoop=1;jettySize=auto;html=1;exitX=1;exitY=0.5;exitDx=0;exitDy=0;entryX=0;entryY=0.5;entryDx=0;entryDy=0;fillColor=#f8cecc;strokeColor=#b85450;" parent="1" source="2jY6_2lJNfAR5JcigIlx-173" target="sa7XXo4Z0BAsTt5Hyaze-108" edge="1">
          <mxGeometry relative="1" as="geometry" />
        </mxCell>
        <mxCell id="2jY6_2lJNfAR5JcigIlx-173" value="&quot;.&quot;&amp;nbsp;" style="rounded=1;whiteSpace=wrap;html=1;" parent="1" vertex="1">
          <mxGeometry x="150" y="1600" width="50" height="40" as="geometry" />
        </mxCell>
        <mxCell id="2jY6_2lJNfAR5JcigIlx-174" style="edgeStyle=orthogonalEdgeStyle;rounded=0;orthogonalLoop=1;jettySize=auto;html=1;exitX=0.5;exitY=0;exitDx=0;exitDy=0;entryX=0.5;entryY=1;entryDx=0;entryDy=0;fillColor=#ffe6cc;strokeColor=#d79b00;" parent="1" target="2jY6_2lJNfAR5JcigIlx-176" edge="1">
          <mxGeometry relative="1" as="geometry">
            <mxPoint x="260" y="1550" as="sourcePoint" />
          </mxGeometry>
        </mxCell>
        <mxCell id="2jY6_2lJNfAR5JcigIlx-175" style="edgeStyle=orthogonalEdgeStyle;rounded=0;orthogonalLoop=1;jettySize=auto;html=1;exitX=0.5;exitY=0;exitDx=0;exitDy=0;entryX=0.5;entryY=1;entryDx=0;entryDy=0;dashed=1;endArrow=block;endFill=1;" parent="1" source="2jY6_2lJNfAR5JcigIlx-176" target="2jY6_2lJNfAR5JcigIlx-177" edge="1">
          <mxGeometry relative="1" as="geometry" />
        </mxCell>
        <mxCell id="2jY6_2lJNfAR5JcigIlx-176" value="output activations" style="rhombus;whiteSpace=wrap;html=1;" parent="1" vertex="1">
          <mxGeometry x="180" y="1490" width="160" height="40" as="geometry" />
        </mxCell>
        <mxCell id="2jY6_2lJNfAR5JcigIlx-177" value="cross entropy with label &quot;Y&quot;" style="whiteSpace=wrap;html=1;aspect=fixed;fillColor=#f5f5f5;fontColor=#333333;strokeColor=#666666;" parent="1" vertex="1">
          <mxGeometry x="220" y="1390" width="80" height="80" as="geometry" />
        </mxCell>
        <mxCell id="2jY6_2lJNfAR5JcigIlx-179" value="First token" style="text;html=1;align=center;verticalAlign=middle;whiteSpace=wrap;rounded=0;strokeColor=default;" parent="1" vertex="1">
          <mxGeometry x="140" y="1350" width="210" height="20" as="geometry" />
        </mxCell>
        <mxCell id="2jY6_2lJNfAR5JcigIlx-180" value="dummy activations" style="shape=hexagon;perimeter=hexagonPerimeter2;whiteSpace=wrap;html=1;fixedSize=1;" parent="1" vertex="1">
          <mxGeometry x="220" y="1630" width="80" height="40" as="geometry" />
        </mxCell>
        <mxCell id="2jY6_2lJNfAR5JcigIlx-185" value="1" style="rounded=0;whiteSpace=wrap;html=1;" parent="1" vertex="1">
          <mxGeometry x="300" y="1840" width="40" height="40" as="geometry" />
        </mxCell>
        <mxCell id="2jY6_2lJNfAR5JcigIlx-186" value="2" style="rounded=0;whiteSpace=wrap;html=1;" parent="1" vertex="1">
          <mxGeometry x="340" y="1840" width="40" height="40" as="geometry" />
        </mxCell>
        <mxCell id="2jY6_2lJNfAR5JcigIlx-187" value="3" style="rounded=0;whiteSpace=wrap;html=1;" parent="1" vertex="1">
          <mxGeometry x="380" y="1840" width="40" height="40" as="geometry" />
        </mxCell>
        <mxCell id="2jY6_2lJNfAR5JcigIlx-188" value="..." style="rounded=0;whiteSpace=wrap;html=1;" parent="1" vertex="1">
          <mxGeometry x="420" y="1840" width="40" height="40" as="geometry" />
        </mxCell>
        <mxCell id="2jY6_2lJNfAR5JcigIlx-189" value="100" style="rounded=0;whiteSpace=wrap;html=1;" parent="1" vertex="1">
          <mxGeometry x="460" y="1840" width="40" height="40" as="geometry" />
        </mxCell>
        <mxCell id="2jY6_2lJNfAR5JcigIlx-205" value="1" style="rounded=0;whiteSpace=wrap;html=1;" parent="1" vertex="1">
          <mxGeometry x="230" y="1930" width="40" height="40" as="geometry" />
        </mxCell>
        <mxCell id="2jY6_2lJNfAR5JcigIlx-206" value="21" style="rounded=0;whiteSpace=wrap;html=1;" parent="1" vertex="1">
          <mxGeometry x="230" y="1970" width="40" height="40" as="geometry" />
        </mxCell>
        <mxCell id="2jY6_2lJNfAR5JcigIlx-207" value="41" style="rounded=0;whiteSpace=wrap;html=1;" parent="1" vertex="1">
          <mxGeometry x="230" y="2010" width="40" height="40" as="geometry" />
        </mxCell>
        <mxCell id="2jY6_2lJNfAR5JcigIlx-208" value="61" style="rounded=0;whiteSpace=wrap;html=1;" parent="1" vertex="1">
          <mxGeometry x="230" y="2050" width="40" height="40" as="geometry" />
        </mxCell>
        <mxCell id="2jY6_2lJNfAR5JcigIlx-209" value="81" style="rounded=0;whiteSpace=wrap;html=1;" parent="1" vertex="1">
          <mxGeometry x="230" y="2090" width="40" height="40" as="geometry" />
        </mxCell>
        <mxCell id="2jY6_2lJNfAR5JcigIlx-215" value="21" style="rounded=0;whiteSpace=wrap;html=1;" parent="1" vertex="1">
          <mxGeometry x="230" y="1970" width="40" height="40" as="geometry" />
        </mxCell>
        <mxCell id="2jY6_2lJNfAR5JcigIlx-220" value="2" style="rounded=0;whiteSpace=wrap;html=1;" parent="1" vertex="1">
          <mxGeometry x="310" y="1930" width="40" height="40" as="geometry" />
        </mxCell>
        <mxCell id="2jY6_2lJNfAR5JcigIlx-221" value="21" style="rounded=0;whiteSpace=wrap;html=1;" parent="1" vertex="1">
          <mxGeometry x="310" y="1970" width="40" height="40" as="geometry" />
        </mxCell>
        <mxCell id="2jY6_2lJNfAR5JcigIlx-222" value="42" style="rounded=0;whiteSpace=wrap;html=1;" parent="1" vertex="1">
          <mxGeometry x="310" y="2010" width="40" height="40" as="geometry" />
        </mxCell>
        <mxCell id="2jY6_2lJNfAR5JcigIlx-223" value="62" style="rounded=0;whiteSpace=wrap;html=1;" parent="1" vertex="1">
          <mxGeometry x="310" y="2050" width="40" height="40" as="geometry" />
        </mxCell>
        <mxCell id="2jY6_2lJNfAR5JcigIlx-224" value="82" style="rounded=0;whiteSpace=wrap;html=1;" parent="1" vertex="1">
          <mxGeometry x="310" y="2090" width="40" height="40" as="geometry" />
        </mxCell>
        <mxCell id="2jY6_2lJNfAR5JcigIlx-225" value="22" style="rounded=0;whiteSpace=wrap;html=1;" parent="1" vertex="1">
          <mxGeometry x="310" y="1970" width="40" height="40" as="geometry" />
        </mxCell>
        <mxCell id="2jY6_2lJNfAR5JcigIlx-226" value="3" style="rounded=0;whiteSpace=wrap;html=1;" parent="1" vertex="1">
          <mxGeometry x="390" y="1930" width="40" height="40" as="geometry" />
        </mxCell>
        <mxCell id="2jY6_2lJNfAR5JcigIlx-227" value="21" style="rounded=0;whiteSpace=wrap;html=1;" parent="1" vertex="1">
          <mxGeometry x="390" y="1970" width="40" height="40" as="geometry" />
        </mxCell>
        <mxCell id="2jY6_2lJNfAR5JcigIlx-228" value="43" style="rounded=0;whiteSpace=wrap;html=1;" parent="1" vertex="1">
          <mxGeometry x="390" y="2010" width="40" height="40" as="geometry" />
        </mxCell>
        <mxCell id="2jY6_2lJNfAR5JcigIlx-229" value="63" style="rounded=0;whiteSpace=wrap;html=1;" parent="1" vertex="1">
          <mxGeometry x="390" y="2050" width="40" height="40" as="geometry" />
        </mxCell>
        <mxCell id="2jY6_2lJNfAR5JcigIlx-230" value="83" style="rounded=0;whiteSpace=wrap;html=1;" parent="1" vertex="1">
          <mxGeometry x="390" y="2090" width="40" height="40" as="geometry" />
        </mxCell>
        <mxCell id="2jY6_2lJNfAR5JcigIlx-231" value="23" style="rounded=0;whiteSpace=wrap;html=1;" parent="1" vertex="1">
          <mxGeometry x="390" y="1970" width="40" height="40" as="geometry" />
        </mxCell>
        <mxCell id="2jY6_2lJNfAR5JcigIlx-232" value="19" style="rounded=0;whiteSpace=wrap;html=1;" parent="1" vertex="1">
          <mxGeometry x="510" y="1930" width="40" height="40" as="geometry" />
        </mxCell>
        <mxCell id="2jY6_2lJNfAR5JcigIlx-233" value="21" style="rounded=0;whiteSpace=wrap;html=1;" parent="1" vertex="1">
          <mxGeometry x="510" y="1970" width="40" height="40" as="geometry" />
        </mxCell>
        <mxCell id="2jY6_2lJNfAR5JcigIlx-234" value="59" style="rounded=0;whiteSpace=wrap;html=1;" parent="1" vertex="1">
          <mxGeometry x="510" y="2010" width="40" height="40" as="geometry" />
        </mxCell>
        <mxCell id="2jY6_2lJNfAR5JcigIlx-235" value="79" style="rounded=0;whiteSpace=wrap;html=1;" parent="1" vertex="1">
          <mxGeometry x="510" y="2050" width="40" height="40" as="geometry" />
        </mxCell>
        <mxCell id="2jY6_2lJNfAR5JcigIlx-236" value="99" style="rounded=0;whiteSpace=wrap;html=1;" parent="1" vertex="1">
          <mxGeometry x="510" y="2090" width="40" height="40" as="geometry" />
        </mxCell>
        <mxCell id="2jY6_2lJNfAR5JcigIlx-237" value="39" style="rounded=0;whiteSpace=wrap;html=1;" parent="1" vertex="1">
          <mxGeometry x="510" y="1970" width="40" height="40" as="geometry" />
        </mxCell>
        <mxCell id="2jY6_2lJNfAR5JcigIlx-238" value="20" style="rounded=0;whiteSpace=wrap;html=1;" parent="1" vertex="1">
          <mxGeometry x="590" y="1930" width="40" height="40" as="geometry" />
        </mxCell>
        <mxCell id="2jY6_2lJNfAR5JcigIlx-239" value="21" style="rounded=0;whiteSpace=wrap;html=1;" parent="1" vertex="1">
          <mxGeometry x="590" y="1970" width="40" height="40" as="geometry" />
        </mxCell>
        <mxCell id="2jY6_2lJNfAR5JcigIlx-240" value="60" style="rounded=0;whiteSpace=wrap;html=1;" parent="1" vertex="1">
          <mxGeometry x="590" y="2010" width="40" height="40" as="geometry" />
        </mxCell>
        <mxCell id="2jY6_2lJNfAR5JcigIlx-241" value="80" style="rounded=0;whiteSpace=wrap;html=1;" parent="1" vertex="1">
          <mxGeometry x="590" y="2050" width="40" height="40" as="geometry" />
        </mxCell>
        <mxCell id="2jY6_2lJNfAR5JcigIlx-242" value="100" style="rounded=0;whiteSpace=wrap;html=1;" parent="1" vertex="1">
          <mxGeometry x="590" y="2090" width="40" height="40" as="geometry" />
        </mxCell>
        <mxCell id="2jY6_2lJNfAR5JcigIlx-243" value="40" style="rounded=0;whiteSpace=wrap;html=1;" parent="1" vertex="1">
          <mxGeometry x="590" y="1970" width="40" height="40" as="geometry" />
        </mxCell>
        <mxCell id="2jY6_2lJNfAR5JcigIlx-244" value="&lt;font face=&quot;Courier New&quot;&gt;len(dataset) = 100&lt;br&gt;batch_size = 5&lt;br&gt;batches = 20 (=100/5)&lt;br&gt;&lt;/font&gt;" style="text;html=1;strokeColor=none;fillColor=none;align=left;verticalAlign=middle;whiteSpace=wrap;rounded=0;" parent="1" vertex="1">
          <mxGeometry x="20" y="1840" width="180" height="60" as="geometry" />
        </mxCell>
        <mxCell id="2jY6_2lJNfAR5JcigIlx-245" value="" style="strokeWidth=2;html=1;shape=mxgraph.flowchart.annotation_2;align=left;labelPosition=right;pointerEvents=1;rotation=-90;" parent="1" vertex="1">
          <mxGeometry x="409" y="1950" width="50" height="420" as="geometry" />
        </mxCell>
        <mxCell id="2jY6_2lJNfAR5JcigIlx-246" value="20 batches" style="text;html=1;strokeColor=none;fillColor=none;align=center;verticalAlign=middle;whiteSpace=wrap;rounded=0;" parent="1" vertex="1">
          <mxGeometry x="380" y="2190" width="100" height="30" as="geometry" />
        </mxCell>
        <mxCell id="2jY6_2lJNfAR5JcigIlx-247" value="" style="strokeWidth=2;html=1;shape=mxgraph.flowchart.annotation_2;align=left;labelPosition=right;pointerEvents=1;rotation=0;" parent="1" vertex="1">
          <mxGeometry x="162" y="1920" width="50" height="210" as="geometry" />
        </mxCell>
        <mxCell id="2jY6_2lJNfAR5JcigIlx-248" value="batch size of 5" style="text;html=1;strokeColor=none;fillColor=none;align=center;verticalAlign=middle;whiteSpace=wrap;rounded=0;" parent="1" vertex="1">
          <mxGeometry x="60" y="2010" width="100" height="30" as="geometry" />
        </mxCell>
        <mxCell id="2jY6_2lJNfAR5JcigIlx-249" value="&lt;font style=&quot;font-size: 32px;&quot;&gt;...&lt;/font&gt;" style="text;html=1;strokeColor=none;fillColor=none;align=center;verticalAlign=middle;whiteSpace=wrap;rounded=0;" parent="1" vertex="1">
          <mxGeometry x="440" y="2010" width="60" height="30" as="geometry" />
        </mxCell>
        <mxCell id="2jY6_2lJNfAR5JcigIlx-252" style="rounded=0;orthogonalLoop=1;jettySize=auto;html=1;endArrow=none;endFill=0;" parent="1" source="2jY6_2lJNfAR5JcigIlx-251" edge="1">
          <mxGeometry relative="1" as="geometry">
            <mxPoint x="460" y="1940" as="targetPoint" />
          </mxGeometry>
        </mxCell>
        <mxCell id="2jY6_2lJNfAR5JcigIlx-251" value="&lt;b&gt;Sequentially across batches per sample&lt;/b&gt;" style="text;html=1;strokeColor=none;fillColor=none;align=center;verticalAlign=middle;whiteSpace=wrap;rounded=0;" parent="1" vertex="1">
          <mxGeometry x="540" y="1870" width="130" height="30" as="geometry" />
        </mxCell>
        <mxCell id="2jY6_2lJNfAR5JcigIlx-253" value="first batch" style="text;html=1;strokeColor=none;fillColor=none;align=center;verticalAlign=middle;whiteSpace=wrap;rounded=0;rotation=-15;" parent="1" vertex="1">
          <mxGeometry x="230" y="1900" width="100" height="30" as="geometry" />
        </mxCell>
        <mxCell id="2jY6_2lJNfAR5JcigIlx-255" value="second batch" style="text;html=1;strokeColor=none;fillColor=none;align=center;verticalAlign=middle;whiteSpace=wrap;rounded=0;rotation=-15;" parent="1" vertex="1">
          <mxGeometry x="312" y="1898" width="100" height="30" as="geometry" />
        </mxCell>
        <mxCell id="2jY6_2lJNfAR5JcigIlx-259" value="" style="endArrow=classic;html=1;rounded=0;fillColor=#ffe6cc;strokeColor=#d79b00;" parent="1" edge="1">
          <mxGeometry width="50" height="50" relative="1" as="geometry">
            <mxPoint x="425" y="245" as="sourcePoint" />
            <mxPoint x="465" y="245" as="targetPoint" />
          </mxGeometry>
        </mxCell>
        <mxCell id="2jY6_2lJNfAR5JcigIlx-260" value="hidden-to-out" style="text;html=1;strokeColor=none;fillColor=none;align=center;verticalAlign=middle;whiteSpace=wrap;rounded=0;" parent="1" vertex="1">
          <mxGeometry x="465" y="230" width="80" height="30" as="geometry" />
        </mxCell>
        <mxCell id="2jY6_2lJNfAR5JcigIlx-261" value="input-to-hidden (embedding)" style="text;html=1;strokeColor=none;fillColor=none;align=center;verticalAlign=middle;whiteSpace=wrap;rounded=0;" parent="1" vertex="1">
          <mxGeometry x="465" y="270" width="90" height="30" as="geometry" />
        </mxCell>
        <mxCell id="2jY6_2lJNfAR5JcigIlx-262" value="" style="endArrow=classic;html=1;rounded=0;fillColor=#f8cecc;strokeColor=#b85450;" parent="1" edge="1">
          <mxGeometry width="50" height="50" relative="1" as="geometry">
            <mxPoint x="425" y="285" as="sourcePoint" />
            <mxPoint x="465" y="285" as="targetPoint" />
          </mxGeometry>
        </mxCell>
        <mxCell id="2jY6_2lJNfAR5JcigIlx-263" value="" style="endArrow=classic;html=1;rounded=0;fillColor=#0050ef;strokeColor=#001DBC;" parent="1" edge="1">
          <mxGeometry width="50" height="50" relative="1" as="geometry">
            <mxPoint x="425" y="325" as="sourcePoint" />
            <mxPoint x="465" y="325" as="targetPoint" />
          </mxGeometry>
        </mxCell>
        <mxCell id="2jY6_2lJNfAR5JcigIlx-264" value="hidden-to-hidden" style="text;html=1;strokeColor=none;fillColor=none;align=center;verticalAlign=middle;whiteSpace=wrap;rounded=0;" parent="1" vertex="1">
          <mxGeometry x="465" y="310" width="100" height="30" as="geometry" />
        </mxCell>
        <mxCell id="2jY6_2lJNfAR5JcigIlx-271" value="1" style="rounded=0;whiteSpace=wrap;html=1;" parent="1" vertex="1">
          <mxGeometry x="240" y="2380" width="40" height="40" as="geometry" />
        </mxCell>
        <mxCell id="2jY6_2lJNfAR5JcigIlx-272" value="21" style="rounded=0;whiteSpace=wrap;html=1;" parent="1" vertex="1">
          <mxGeometry x="240" y="2420" width="40" height="40" as="geometry" />
        </mxCell>
        <mxCell id="2jY6_2lJNfAR5JcigIlx-273" value="41" style="rounded=0;whiteSpace=wrap;html=1;" parent="1" vertex="1">
          <mxGeometry x="240" y="2460" width="40" height="40" as="geometry" />
        </mxCell>
        <mxCell id="2jY6_2lJNfAR5JcigIlx-274" value="61" style="rounded=0;whiteSpace=wrap;html=1;" parent="1" vertex="1">
          <mxGeometry x="240" y="2500" width="40" height="40" as="geometry" />
        </mxCell>
        <mxCell id="2jY6_2lJNfAR5JcigIlx-275" value="81" style="rounded=0;whiteSpace=wrap;html=1;" parent="1" vertex="1">
          <mxGeometry x="240" y="2540" width="40" height="40" as="geometry" />
        </mxCell>
        <mxCell id="2jY6_2lJNfAR5JcigIlx-276" value="21" style="rounded=0;whiteSpace=wrap;html=1;" parent="1" vertex="1">
          <mxGeometry x="240" y="2420" width="40" height="40" as="geometry" />
        </mxCell>
        <mxCell id="2jY6_2lJNfAR5JcigIlx-277" value="2" style="rounded=0;whiteSpace=wrap;html=1;" parent="1" vertex="1">
          <mxGeometry x="320" y="2380" width="40" height="40" as="geometry" />
        </mxCell>
        <mxCell id="2jY6_2lJNfAR5JcigIlx-278" value="21" style="rounded=0;whiteSpace=wrap;html=1;" parent="1" vertex="1">
          <mxGeometry x="320" y="2420" width="40" height="40" as="geometry" />
        </mxCell>
        <mxCell id="2jY6_2lJNfAR5JcigIlx-279" value="42" style="rounded=0;whiteSpace=wrap;html=1;" parent="1" vertex="1">
          <mxGeometry x="320" y="2460" width="40" height="40" as="geometry" />
        </mxCell>
        <mxCell id="2jY6_2lJNfAR5JcigIlx-280" value="62" style="rounded=0;whiteSpace=wrap;html=1;" parent="1" vertex="1">
          <mxGeometry x="320" y="2500" width="40" height="40" as="geometry" />
        </mxCell>
        <mxCell id="2jY6_2lJNfAR5JcigIlx-281" value="82" style="rounded=0;whiteSpace=wrap;html=1;" parent="1" vertex="1">
          <mxGeometry x="320" y="2540" width="40" height="40" as="geometry" />
        </mxCell>
        <mxCell id="2jY6_2lJNfAR5JcigIlx-282" value="22" style="rounded=0;whiteSpace=wrap;html=1;" parent="1" vertex="1">
          <mxGeometry x="320" y="2420" width="40" height="40" as="geometry" />
        </mxCell>
        <mxCell id="2jY6_2lJNfAR5JcigIlx-283" value="3" style="rounded=0;whiteSpace=wrap;html=1;" parent="1" vertex="1">
          <mxGeometry x="400" y="2380" width="40" height="40" as="geometry" />
        </mxCell>
        <mxCell id="2jY6_2lJNfAR5JcigIlx-284" value="21" style="rounded=0;whiteSpace=wrap;html=1;" parent="1" vertex="1">
          <mxGeometry x="400" y="2420" width="40" height="40" as="geometry" />
        </mxCell>
        <mxCell id="2jY6_2lJNfAR5JcigIlx-285" value="43" style="rounded=0;whiteSpace=wrap;html=1;" parent="1" vertex="1">
          <mxGeometry x="400" y="2460" width="40" height="40" as="geometry" />
        </mxCell>
        <mxCell id="2jY6_2lJNfAR5JcigIlx-286" value="63" style="rounded=0;whiteSpace=wrap;html=1;" parent="1" vertex="1">
          <mxGeometry x="400" y="2500" width="40" height="40" as="geometry" />
        </mxCell>
        <mxCell id="2jY6_2lJNfAR5JcigIlx-287" value="83" style="rounded=0;whiteSpace=wrap;html=1;" parent="1" vertex="1">
          <mxGeometry x="400" y="2540" width="40" height="40" as="geometry" />
        </mxCell>
        <mxCell id="2jY6_2lJNfAR5JcigIlx-288" value="23" style="rounded=0;whiteSpace=wrap;html=1;" parent="1" vertex="1">
          <mxGeometry x="400" y="2420" width="40" height="40" as="geometry" />
        </mxCell>
        <mxCell id="2jY6_2lJNfAR5JcigIlx-309" value="first batch" style="text;html=1;strokeColor=none;fillColor=none;align=center;verticalAlign=middle;whiteSpace=wrap;rounded=0;rotation=-15;" parent="1" vertex="1">
          <mxGeometry x="240" y="2350" width="100" height="30" as="geometry" />
        </mxCell>
        <mxCell id="2jY6_2lJNfAR5JcigIlx-310" value="second batch" style="text;html=1;strokeColor=none;fillColor=none;align=center;verticalAlign=middle;whiteSpace=wrap;rounded=0;rotation=-15;" parent="1" vertex="1">
          <mxGeometry x="322" y="2348" width="100" height="30" as="geometry" />
        </mxCell>
        <mxCell id="2jY6_2lJNfAR5JcigIlx-312" value="third batch" style="text;html=1;strokeColor=none;fillColor=none;align=center;verticalAlign=middle;whiteSpace=wrap;rounded=0;rotation=-15;" parent="1" vertex="1">
          <mxGeometry x="402" y="2348" width="100" height="30" as="geometry" />
        </mxCell>
        <mxCell id="2jY6_2lJNfAR5JcigIlx-313" value="Order of samples as specified by the Sampler" style="text;html=1;strokeColor=none;fillColor=none;align=center;verticalAlign=middle;whiteSpace=wrap;rounded=0;fontStyle=1" parent="1" vertex="1">
          <mxGeometry x="419" y="2590" width="211" height="30" as="geometry" />
        </mxCell>
        <mxCell id="2jY6_2lJNfAR5JcigIlx-314" value="&lt;font style=&quot;font-size: 32px;&quot;&gt;...&lt;/font&gt;" style="text;html=1;strokeColor=none;fillColor=none;align=center;verticalAlign=middle;whiteSpace=wrap;rounded=0;" parent="1" vertex="1">
          <mxGeometry x="440" y="2460" width="60" height="30" as="geometry" />
        </mxCell>
        <mxCell id="sa7XXo4Z0BAsTt5Hyaze-92" value="" style="edgeStyle=orthogonalEdgeStyle;rounded=0;orthogonalLoop=1;jettySize=auto;html=1;exitX=0.5;exitY=0;exitDx=0;exitDy=0;entryX=0.5;entryY=1;entryDx=0;entryDy=0;fillColor=#0050ef;strokeColor=#001DBC;" edge="1" parent="1" source="2jY6_2lJNfAR5JcigIlx-2" target="sa7XXo4Z0BAsTt5Hyaze-91">
          <mxGeometry relative="1" as="geometry">
            <mxPoint x="340" y="360" as="sourcePoint" />
            <mxPoint x="340" y="320" as="targetPoint" />
          </mxGeometry>
        </mxCell>
        <mxCell id="sa7XXo4Z0BAsTt5Hyaze-91" value="+" style="ellipse;whiteSpace=wrap;html=1;" vertex="1" parent="1">
          <mxGeometry x="330" y="340" width="20" height="20" as="geometry" />
        </mxCell>
        <mxCell id="sa7XXo4Z0BAsTt5Hyaze-93" value="+" style="ellipse;whiteSpace=wrap;html=1;" vertex="1" parent="1">
          <mxGeometry x="330" y="260" width="20" height="20" as="geometry" />
        </mxCell>
        <mxCell id="sa7XXo4Z0BAsTt5Hyaze-98" value="+" style="ellipse;whiteSpace=wrap;html=1;" vertex="1" parent="1">
          <mxGeometry x="270" y="740" width="20" height="20" as="geometry" />
        </mxCell>
        <mxCell id="sa7XXo4Z0BAsTt5Hyaze-100" value="+" style="ellipse;whiteSpace=wrap;html=1;" vertex="1" parent="1">
          <mxGeometry x="270" y="820" width="20" height="20" as="geometry" />
        </mxCell>
        <mxCell id="sa7XXo4Z0BAsTt5Hyaze-101" value="+" style="ellipse;whiteSpace=wrap;html=1;" vertex="1" parent="1">
          <mxGeometry x="270" y="900" width="20" height="20" as="geometry" />
        </mxCell>
        <mxCell id="sa7XXo4Z0BAsTt5Hyaze-105" style="edgeStyle=orthogonalEdgeStyle;rounded=0;orthogonalLoop=1;jettySize=auto;html=1;exitX=0.5;exitY=0;exitDx=0;exitDy=0;entryX=0.5;entryY=1;entryDx=0;entryDy=0;fillColor=#0050ef;strokeColor=#001DBC;" edge="1" parent="1" source="sa7XXo4Z0BAsTt5Hyaze-103" target="2jY6_2lJNfAR5JcigIlx-79">
          <mxGeometry relative="1" as="geometry" />
        </mxCell>
        <mxCell id="sa7XXo4Z0BAsTt5Hyaze-103" value="+" style="ellipse;whiteSpace=wrap;html=1;" vertex="1" parent="1">
          <mxGeometry x="500" y="900" width="20" height="20" as="geometry" />
        </mxCell>
        <mxCell id="sa7XXo4Z0BAsTt5Hyaze-107" style="edgeStyle=orthogonalEdgeStyle;rounded=0;orthogonalLoop=1;jettySize=auto;html=1;exitX=0.5;exitY=0;exitDx=0;exitDy=0;entryX=0.5;entryY=1;entryDx=0;entryDy=0;fillColor=#0050ef;strokeColor=#001DBC;" edge="1" parent="1" source="sa7XXo4Z0BAsTt5Hyaze-106" target="2jY6_2lJNfAR5JcigIlx-93">
          <mxGeometry relative="1" as="geometry" />
        </mxCell>
        <mxCell id="sa7XXo4Z0BAsTt5Hyaze-106" value="+" style="ellipse;whiteSpace=wrap;html=1;" vertex="1" parent="1">
          <mxGeometry x="720" y="900" width="20" height="20" as="geometry" />
        </mxCell>
        <mxCell id="sa7XXo4Z0BAsTt5Hyaze-110" value="" style="edgeStyle=orthogonalEdgeStyle;rounded=0;orthogonalLoop=1;jettySize=auto;html=1;entryX=0.571;entryY=0.75;entryDx=0;entryDy=0;entryPerimeter=0;endArrow=block;endFill=1;dashed=1;" edge="1" parent="1" source="2jY6_2lJNfAR5JcigIlx-180" target="sa7XXo4Z0BAsTt5Hyaze-108">
          <mxGeometry relative="1" as="geometry">
            <mxPoint x="260" y="1626" as="sourcePoint" />
            <mxPoint x="260" y="1590" as="targetPoint" />
          </mxGeometry>
        </mxCell>
        <mxCell id="sa7XXo4Z0BAsTt5Hyaze-111" style="edgeStyle=orthogonalEdgeStyle;rounded=0;orthogonalLoop=1;jettySize=auto;html=1;exitX=0.5;exitY=0;exitDx=0;exitDy=0;entryX=0.5;entryY=1;entryDx=0;entryDy=0;fillColor=#0050ef;strokeColor=#001DBC;" edge="1" parent="1" source="sa7XXo4Z0BAsTt5Hyaze-108" target="2jY6_2lJNfAR5JcigIlx-171">
          <mxGeometry relative="1" as="geometry" />
        </mxCell>
        <mxCell id="sa7XXo4Z0BAsTt5Hyaze-108" value="+" style="ellipse;whiteSpace=wrap;html=1;" vertex="1" parent="1">
          <mxGeometry x="250" y="1610" width="20" height="20" as="geometry" />
        </mxCell>
        <mxCell id="sa7XXo4Z0BAsTt5Hyaze-113" style="edgeStyle=orthogonalEdgeStyle;rounded=0;orthogonalLoop=1;jettySize=auto;html=1;exitX=0.5;exitY=0;exitDx=0;exitDy=0;entryX=0.5;entryY=1;entryDx=0;entryDy=0;fillColor=#0050ef;strokeColor=#001DBC;" edge="1" parent="1" source="sa7XXo4Z0BAsTt5Hyaze-112" target="2jY6_2lJNfAR5JcigIlx-150">
          <mxGeometry relative="1" as="geometry" />
        </mxCell>
        <mxCell id="sa7XXo4Z0BAsTt5Hyaze-112" value="+" style="ellipse;whiteSpace=wrap;html=1;" vertex="1" parent="1">
          <mxGeometry x="470" y="1610" width="20" height="20" as="geometry" />
        </mxCell>
        <mxCell id="sa7XXo4Z0BAsTt5Hyaze-115" style="edgeStyle=orthogonalEdgeStyle;rounded=0;orthogonalLoop=1;jettySize=auto;html=1;exitX=0.5;exitY=0;exitDx=0;exitDy=0;entryX=0.5;entryY=1;entryDx=0;entryDy=0;fillColor=#0050ef;strokeColor=#001DBC;" edge="1" parent="1" source="sa7XXo4Z0BAsTt5Hyaze-114" target="2jY6_2lJNfAR5JcigIlx-157">
          <mxGeometry relative="1" as="geometry" />
        </mxCell>
        <mxCell id="sa7XXo4Z0BAsTt5Hyaze-114" value="+" style="ellipse;whiteSpace=wrap;html=1;" vertex="1" parent="1">
          <mxGeometry x="690" y="1610" width="20" height="20" as="geometry" />
        </mxCell>
        <mxCell id="sa7XXo4Z0BAsTt5Hyaze-116" value="" style="rounded=0;whiteSpace=wrap;html=1;fillColor=none;" vertex="1" parent="1">
          <mxGeometry x="475" y="2920" width="210" height="320" as="geometry" />
        </mxCell>
        <mxCell id="sa7XXo4Z0BAsTt5Hyaze-117" value="" style="rounded=0;whiteSpace=wrap;html=1;fillColor=none;" vertex="1" parent="1">
          <mxGeometry x="255" y="2920" width="210" height="320" as="geometry" />
        </mxCell>
        <mxCell id="sa7XXo4Z0BAsTt5Hyaze-118" value="" style="rounded=0;whiteSpace=wrap;html=1;fillColor=none;" vertex="1" parent="1">
          <mxGeometry x="35" y="2920" width="210" height="320" as="geometry" />
        </mxCell>
        <mxCell id="sa7XXo4Z0BAsTt5Hyaze-119" style="edgeStyle=orthogonalEdgeStyle;rounded=0;orthogonalLoop=1;jettySize=auto;html=1;exitX=1;exitY=0.5;exitDx=0;exitDy=0;entryX=0.5;entryY=1;entryDx=0;entryDy=0;dashed=1;" edge="1" source="sa7XXo4Z0BAsTt5Hyaze-120" target="sa7XXo4Z0BAsTt5Hyaze-152" parent="1">
          <mxGeometry relative="1" as="geometry">
            <Array as="points">
              <mxPoint x="445" y="3140" />
              <mxPoint x="445" y="3230" />
              <mxPoint x="595" y="3230" />
            </Array>
          </mxGeometry>
        </mxCell>
        <mxCell id="sa7XXo4Z0BAsTt5Hyaze-181" value="" style="edgeStyle=orthogonalEdgeStyle;rounded=0;orthogonalLoop=1;jettySize=auto;html=1;" edge="1" parent="1" source="sa7XXo4Z0BAsTt5Hyaze-120" target="sa7XXo4Z0BAsTt5Hyaze-173">
          <mxGeometry relative="1" as="geometry" />
        </mxCell>
        <mxCell id="sa7XXo4Z0BAsTt5Hyaze-120" value="hidden&lt;br style=&quot;border-color: var(--border-color);&quot;&gt;activations&lt;br&gt;layer 1" style="ellipse;whiteSpace=wrap;html=1;" vertex="1" parent="1">
          <mxGeometry x="335" y="3110" width="80" height="50" as="geometry" />
        </mxCell>
        <mxCell id="sa7XXo4Z0BAsTt5Hyaze-121" style="rounded=0;orthogonalLoop=1;jettySize=auto;html=1;exitX=1;exitY=0.5;exitDx=0;exitDy=0;entryX=0;entryY=0.5;entryDx=0;entryDy=0;fillColor=#f8cecc;strokeColor=#b85450;" edge="1" source="sa7XXo4Z0BAsTt5Hyaze-122" target="sa7XXo4Z0BAsTt5Hyaze-150" parent="1">
          <mxGeometry relative="1" as="geometry" />
        </mxCell>
        <mxCell id="sa7XXo4Z0BAsTt5Hyaze-122" value="&quot;Y&quot;&amp;nbsp;" style="rounded=1;whiteSpace=wrap;html=1;" vertex="1" parent="1">
          <mxGeometry x="265" y="3170" width="50" height="40" as="geometry" />
        </mxCell>
        <mxCell id="sa7XXo4Z0BAsTt5Hyaze-123" style="edgeStyle=orthogonalEdgeStyle;rounded=0;orthogonalLoop=1;jettySize=auto;html=1;exitX=0.5;exitY=0;exitDx=0;exitDy=0;entryX=0.5;entryY=1;entryDx=0;entryDy=0;fillColor=#ffe6cc;strokeColor=#d79b00;" edge="1" target="sa7XXo4Z0BAsTt5Hyaze-125" parent="1" source="sa7XXo4Z0BAsTt5Hyaze-173">
          <mxGeometry relative="1" as="geometry">
            <mxPoint x="375" y="3120" as="sourcePoint" />
          </mxGeometry>
        </mxCell>
        <mxCell id="sa7XXo4Z0BAsTt5Hyaze-125" value="output activations" style="rhombus;whiteSpace=wrap;html=1;" vertex="1" parent="1">
          <mxGeometry x="295" y="2960" width="160" height="40" as="geometry" />
        </mxCell>
        <mxCell id="sa7XXo4Z0BAsTt5Hyaze-126" value="hidden&lt;br style=&quot;border-color: var(--border-color);&quot;&gt;activations&lt;br&gt;layer 1" style="ellipse;whiteSpace=wrap;html=1;" vertex="1" parent="1">
          <mxGeometry x="555" y="3110" width="80" height="40" as="geometry" />
        </mxCell>
        <mxCell id="sa7XXo4Z0BAsTt5Hyaze-127" style="rounded=0;orthogonalLoop=1;jettySize=auto;html=1;exitX=1;exitY=0.5;exitDx=0;exitDy=0;entryX=0;entryY=0.5;entryDx=0;entryDy=0;fillColor=#f8cecc;strokeColor=#b85450;" edge="1" source="sa7XXo4Z0BAsTt5Hyaze-128" target="sa7XXo4Z0BAsTt5Hyaze-152" parent="1">
          <mxGeometry relative="1" as="geometry" />
        </mxCell>
        <mxCell id="sa7XXo4Z0BAsTt5Hyaze-128" value="&quot;U&quot;&amp;nbsp;" style="rounded=1;whiteSpace=wrap;html=1;" vertex="1" parent="1">
          <mxGeometry x="485" y="3170" width="50" height="40" as="geometry" />
        </mxCell>
        <mxCell id="sa7XXo4Z0BAsTt5Hyaze-129" style="edgeStyle=orthogonalEdgeStyle;rounded=0;orthogonalLoop=1;jettySize=auto;html=1;exitX=0.5;exitY=0;exitDx=0;exitDy=0;entryX=0.5;entryY=1;entryDx=0;entryDy=0;fillColor=#ffe6cc;strokeColor=#d79b00;" edge="1" target="sa7XXo4Z0BAsTt5Hyaze-131" parent="1" source="sa7XXo4Z0BAsTt5Hyaze-174">
          <mxGeometry relative="1" as="geometry">
            <mxPoint x="595" y="3120" as="sourcePoint" />
          </mxGeometry>
        </mxCell>
        <mxCell id="sa7XXo4Z0BAsTt5Hyaze-131" value="output activations" style="rhombus;whiteSpace=wrap;html=1;" vertex="1" parent="1">
          <mxGeometry x="515" y="2960" width="160" height="40" as="geometry" />
        </mxCell>
        <mxCell id="sa7XXo4Z0BAsTt5Hyaze-134" value="Second Token" style="text;html=1;align=center;verticalAlign=middle;whiteSpace=wrap;rounded=0;strokeColor=default;" vertex="1" parent="1">
          <mxGeometry x="255" y="2920" width="210" height="20" as="geometry" />
        </mxCell>
        <mxCell id="sa7XXo4Z0BAsTt5Hyaze-135" value="Third Token" style="text;html=1;align=center;verticalAlign=middle;whiteSpace=wrap;rounded=0;strokeColor=default;" vertex="1" parent="1">
          <mxGeometry x="475" y="2920" width="210" height="20" as="geometry" />
        </mxCell>
        <mxCell id="sa7XXo4Z0BAsTt5Hyaze-136" style="edgeStyle=orthogonalEdgeStyle;rounded=0;orthogonalLoop=1;jettySize=auto;html=1;exitX=1;exitY=0.5;exitDx=0;exitDy=0;entryX=0.5;entryY=1;entryDx=0;entryDy=0;dashed=1;endArrow=block;endFill=1;" edge="1" source="sa7XXo4Z0BAsTt5Hyaze-137" target="sa7XXo4Z0BAsTt5Hyaze-150" parent="1">
          <mxGeometry relative="1" as="geometry">
            <Array as="points">
              <mxPoint x="215" y="3140" />
              <mxPoint x="215" y="3230" />
              <mxPoint x="375" y="3230" />
            </Array>
          </mxGeometry>
        </mxCell>
        <mxCell id="sa7XXo4Z0BAsTt5Hyaze-172" style="edgeStyle=orthogonalEdgeStyle;rounded=0;orthogonalLoop=1;jettySize=auto;html=1;exitX=0.5;exitY=0;exitDx=0;exitDy=0;entryX=0.5;entryY=1;entryDx=0;entryDy=0;fillColor=#008a00;strokeColor=#005700;" edge="1" parent="1" source="sa7XXo4Z0BAsTt5Hyaze-137" target="sa7XXo4Z0BAsTt5Hyaze-171">
          <mxGeometry relative="1" as="geometry" />
        </mxCell>
        <mxCell id="sa7XXo4Z0BAsTt5Hyaze-137" value="hidden&lt;br style=&quot;border-color: var(--border-color);&quot;&gt;activations&lt;br&gt;layer 1" style="ellipse;whiteSpace=wrap;html=1;" vertex="1" parent="1">
          <mxGeometry x="115" y="3110" width="80" height="50" as="geometry" />
        </mxCell>
        <mxCell id="sa7XXo4Z0BAsTt5Hyaze-138" style="rounded=0;orthogonalLoop=1;jettySize=auto;html=1;exitX=1;exitY=0.5;exitDx=0;exitDy=0;entryX=0;entryY=0.5;entryDx=0;entryDy=0;fillColor=#f8cecc;strokeColor=#b85450;" edge="1" source="sa7XXo4Z0BAsTt5Hyaze-139" target="sa7XXo4Z0BAsTt5Hyaze-148" parent="1">
          <mxGeometry relative="1" as="geometry" />
        </mxCell>
        <mxCell id="sa7XXo4Z0BAsTt5Hyaze-139" value="&quot;.&quot;&amp;nbsp;" style="rounded=1;whiteSpace=wrap;html=1;" vertex="1" parent="1">
          <mxGeometry x="45" y="3170" width="50" height="40" as="geometry" />
        </mxCell>
        <mxCell id="sa7XXo4Z0BAsTt5Hyaze-140" style="edgeStyle=orthogonalEdgeStyle;rounded=0;orthogonalLoop=1;jettySize=auto;html=1;exitX=0.5;exitY=0;exitDx=0;exitDy=0;entryX=0.5;entryY=1;entryDx=0;entryDy=0;fillColor=#ffe6cc;strokeColor=#d79b00;" edge="1" target="sa7XXo4Z0BAsTt5Hyaze-142" parent="1" source="sa7XXo4Z0BAsTt5Hyaze-171">
          <mxGeometry relative="1" as="geometry">
            <mxPoint x="155" y="3120" as="sourcePoint" />
          </mxGeometry>
        </mxCell>
        <mxCell id="sa7XXo4Z0BAsTt5Hyaze-142" value="output activations" style="rhombus;whiteSpace=wrap;html=1;" vertex="1" parent="1">
          <mxGeometry x="75" y="2960" width="160" height="40" as="geometry" />
        </mxCell>
        <mxCell id="sa7XXo4Z0BAsTt5Hyaze-144" value="First token" style="text;html=1;align=center;verticalAlign=middle;whiteSpace=wrap;rounded=0;strokeColor=default;" vertex="1" parent="1">
          <mxGeometry x="35" y="2920" width="210" height="20" as="geometry" />
        </mxCell>
        <mxCell id="sa7XXo4Z0BAsTt5Hyaze-184" style="edgeStyle=orthogonalEdgeStyle;rounded=0;orthogonalLoop=1;jettySize=auto;html=1;exitX=0;exitY=0.5;exitDx=0;exitDy=0;entryX=0;entryY=0.5;entryDx=0;entryDy=0;dashed=1;" edge="1" parent="1" source="sa7XXo4Z0BAsTt5Hyaze-145" target="sa7XXo4Z0BAsTt5Hyaze-183">
          <mxGeometry relative="1" as="geometry">
            <Array as="points">
              <mxPoint x="110" y="3220" />
              <mxPoint x="110" y="3100" />
            </Array>
          </mxGeometry>
        </mxCell>
        <mxCell id="sa7XXo4Z0BAsTt5Hyaze-145" value="dummy activations" style="shape=hexagon;perimeter=hexagonPerimeter2;whiteSpace=wrap;html=1;fixedSize=1;" vertex="1" parent="1">
          <mxGeometry x="115" y="3200" width="80" height="40" as="geometry" />
        </mxCell>
        <mxCell id="sa7XXo4Z0BAsTt5Hyaze-146" value="" style="edgeStyle=orthogonalEdgeStyle;rounded=0;orthogonalLoop=1;jettySize=auto;html=1;entryX=0.571;entryY=0.75;entryDx=0;entryDy=0;entryPerimeter=0;endArrow=block;endFill=1;dashed=1;" edge="1" source="sa7XXo4Z0BAsTt5Hyaze-145" target="sa7XXo4Z0BAsTt5Hyaze-148" parent="1">
          <mxGeometry relative="1" as="geometry">
            <mxPoint x="155" y="3196" as="sourcePoint" />
            <mxPoint x="155" y="3160" as="targetPoint" />
          </mxGeometry>
        </mxCell>
        <mxCell id="sa7XXo4Z0BAsTt5Hyaze-147" style="edgeStyle=orthogonalEdgeStyle;rounded=0;orthogonalLoop=1;jettySize=auto;html=1;exitX=0.5;exitY=0;exitDx=0;exitDy=0;entryX=0.5;entryY=1;entryDx=0;entryDy=0;fillColor=#0050ef;strokeColor=#001DBC;" edge="1" source="sa7XXo4Z0BAsTt5Hyaze-148" target="sa7XXo4Z0BAsTt5Hyaze-137" parent="1">
          <mxGeometry relative="1" as="geometry" />
        </mxCell>
        <mxCell id="sa7XXo4Z0BAsTt5Hyaze-148" value="+" style="ellipse;whiteSpace=wrap;html=1;" vertex="1" parent="1">
          <mxGeometry x="145" y="3180" width="20" height="20" as="geometry" />
        </mxCell>
        <mxCell id="sa7XXo4Z0BAsTt5Hyaze-149" style="edgeStyle=orthogonalEdgeStyle;rounded=0;orthogonalLoop=1;jettySize=auto;html=1;exitX=0.5;exitY=0;exitDx=0;exitDy=0;entryX=0.5;entryY=1;entryDx=0;entryDy=0;fillColor=#0050ef;strokeColor=#001DBC;" edge="1" source="sa7XXo4Z0BAsTt5Hyaze-150" target="sa7XXo4Z0BAsTt5Hyaze-120" parent="1">
          <mxGeometry relative="1" as="geometry" />
        </mxCell>
        <mxCell id="sa7XXo4Z0BAsTt5Hyaze-150" value="+" style="ellipse;whiteSpace=wrap;html=1;" vertex="1" parent="1">
          <mxGeometry x="365" y="3180" width="20" height="20" as="geometry" />
        </mxCell>
        <mxCell id="sa7XXo4Z0BAsTt5Hyaze-151" style="edgeStyle=orthogonalEdgeStyle;rounded=0;orthogonalLoop=1;jettySize=auto;html=1;exitX=0.5;exitY=0;exitDx=0;exitDy=0;entryX=0.5;entryY=1;entryDx=0;entryDy=0;fillColor=#0050ef;strokeColor=#001DBC;" edge="1" source="sa7XXo4Z0BAsTt5Hyaze-152" target="sa7XXo4Z0BAsTt5Hyaze-126" parent="1">
          <mxGeometry relative="1" as="geometry" />
        </mxCell>
        <mxCell id="sa7XXo4Z0BAsTt5Hyaze-152" value="+" style="ellipse;whiteSpace=wrap;html=1;" vertex="1" parent="1">
          <mxGeometry x="585" y="3180" width="20" height="20" as="geometry" />
        </mxCell>
        <mxCell id="sa7XXo4Z0BAsTt5Hyaze-161" value="" style="endArrow=classic;html=1;rounded=0;fillColor=#ffe6cc;strokeColor=#d79b00;" edge="1" parent="1">
          <mxGeometry width="50" height="50" relative="1" as="geometry">
            <mxPoint x="-150" y="2995" as="sourcePoint" />
            <mxPoint x="-110" y="2995" as="targetPoint" />
          </mxGeometry>
        </mxCell>
        <mxCell id="sa7XXo4Z0BAsTt5Hyaze-162" value="hidden-to-out" style="text;html=1;strokeColor=none;fillColor=none;align=center;verticalAlign=middle;whiteSpace=wrap;rounded=0;" vertex="1" parent="1">
          <mxGeometry x="-110" y="2980" width="80" height="30" as="geometry" />
        </mxCell>
        <mxCell id="sa7XXo4Z0BAsTt5Hyaze-163" value="input-to-hidden (embedding)" style="text;html=1;strokeColor=none;fillColor=none;align=center;verticalAlign=middle;whiteSpace=wrap;rounded=0;" vertex="1" parent="1">
          <mxGeometry x="-110" y="3020" width="90" height="30" as="geometry" />
        </mxCell>
        <mxCell id="sa7XXo4Z0BAsTt5Hyaze-164" value="" style="endArrow=classic;html=1;rounded=0;fillColor=#f8cecc;strokeColor=#b85450;" edge="1" parent="1">
          <mxGeometry width="50" height="50" relative="1" as="geometry">
            <mxPoint x="-150" y="3035" as="sourcePoint" />
            <mxPoint x="-110" y="3035" as="targetPoint" />
          </mxGeometry>
        </mxCell>
        <mxCell id="sa7XXo4Z0BAsTt5Hyaze-165" value="hidden-to-hidden layer 1" style="text;html=1;strokeColor=none;fillColor=none;align=center;verticalAlign=middle;whiteSpace=wrap;rounded=0;" vertex="1" parent="1">
          <mxGeometry x="-110" y="3060" width="100" height="30" as="geometry" />
        </mxCell>
        <mxCell id="sa7XXo4Z0BAsTt5Hyaze-166" value="" style="endArrow=classic;html=1;rounded=0;fillColor=#0050ef;strokeColor=#001DBC;" edge="1" parent="1">
          <mxGeometry width="50" height="50" relative="1" as="geometry">
            <mxPoint x="-150" y="3075" as="sourcePoint" />
            <mxPoint x="-110" y="3075" as="targetPoint" />
          </mxGeometry>
        </mxCell>
        <mxCell id="sa7XXo4Z0BAsTt5Hyaze-167" value="" style="endArrow=block;html=1;rounded=0;dashed=1;endFill=1;" edge="1" parent="1">
          <mxGeometry width="50" height="50" relative="1" as="geometry">
            <mxPoint x="-150" y="3145" as="sourcePoint" />
            <mxPoint x="-110" y="3145" as="targetPoint" />
          </mxGeometry>
        </mxCell>
        <mxCell id="sa7XXo4Z0BAsTt5Hyaze-168" value="pass values" style="text;html=1;strokeColor=none;fillColor=none;align=center;verticalAlign=middle;whiteSpace=wrap;rounded=0;" vertex="1" parent="1">
          <mxGeometry x="-108" y="3130" width="70" height="30" as="geometry" />
        </mxCell>
        <mxCell id="sa7XXo4Z0BAsTt5Hyaze-169" value="hidden-to-hidden layer 2" style="text;html=1;strokeColor=none;fillColor=none;align=center;verticalAlign=middle;whiteSpace=wrap;rounded=0;" vertex="1" parent="1">
          <mxGeometry x="-110" y="3096" width="100" height="30" as="geometry" />
        </mxCell>
        <mxCell id="sa7XXo4Z0BAsTt5Hyaze-170" value="" style="endArrow=classic;html=1;rounded=0;fillColor=#008a00;strokeColor=#005700;" edge="1" parent="1">
          <mxGeometry width="50" height="50" relative="1" as="geometry">
            <mxPoint x="-150" y="3111" as="sourcePoint" />
            <mxPoint x="-110" y="3111" as="targetPoint" />
          </mxGeometry>
        </mxCell>
        <mxCell id="sa7XXo4Z0BAsTt5Hyaze-176" style="edgeStyle=orthogonalEdgeStyle;rounded=0;orthogonalLoop=1;jettySize=auto;html=1;exitX=1;exitY=0.5;exitDx=0;exitDy=0;entryX=0;entryY=0.5;entryDx=0;entryDy=0;dashed=1;" edge="1" parent="1" source="sa7XXo4Z0BAsTt5Hyaze-171" target="sa7XXo4Z0BAsTt5Hyaze-175">
          <mxGeometry relative="1" as="geometry" />
        </mxCell>
        <mxCell id="sa7XXo4Z0BAsTt5Hyaze-171" value="hidden&lt;br style=&quot;border-color: var(--border-color);&quot;&gt;activations&lt;br&gt;layer 2" style="ellipse;whiteSpace=wrap;html=1;" vertex="1" parent="1">
          <mxGeometry x="115" y="3020" width="80" height="50" as="geometry" />
        </mxCell>
        <mxCell id="sa7XXo4Z0BAsTt5Hyaze-179" style="edgeStyle=orthogonalEdgeStyle;rounded=0;orthogonalLoop=1;jettySize=auto;html=1;exitX=1;exitY=0.5;exitDx=0;exitDy=0;entryX=0;entryY=0.5;entryDx=0;entryDy=0;dashed=1;" edge="1" parent="1" source="sa7XXo4Z0BAsTt5Hyaze-173" target="sa7XXo4Z0BAsTt5Hyaze-178">
          <mxGeometry relative="1" as="geometry" />
        </mxCell>
        <mxCell id="sa7XXo4Z0BAsTt5Hyaze-173" value="hidden&lt;br style=&quot;border-color: var(--border-color);&quot;&gt;activations&lt;br&gt;layer 2" style="ellipse;whiteSpace=wrap;html=1;" vertex="1" parent="1">
          <mxGeometry x="335" y="3020" width="80" height="50" as="geometry" />
        </mxCell>
        <mxCell id="sa7XXo4Z0BAsTt5Hyaze-174" value="hidden&lt;br style=&quot;border-color: var(--border-color);&quot;&gt;activations&lt;br&gt;layer 2" style="ellipse;whiteSpace=wrap;html=1;" vertex="1" parent="1">
          <mxGeometry x="555" y="3020" width="80" height="50" as="geometry" />
        </mxCell>
        <mxCell id="sa7XXo4Z0BAsTt5Hyaze-177" style="edgeStyle=orthogonalEdgeStyle;rounded=0;orthogonalLoop=1;jettySize=auto;html=1;exitX=0.5;exitY=0;exitDx=0;exitDy=0;entryX=0.5;entryY=1;entryDx=0;entryDy=0;fillColor=#008a00;strokeColor=#005700;" edge="1" parent="1" source="sa7XXo4Z0BAsTt5Hyaze-175" target="sa7XXo4Z0BAsTt5Hyaze-173">
          <mxGeometry relative="1" as="geometry" />
        </mxCell>
        <mxCell id="sa7XXo4Z0BAsTt5Hyaze-175" value="+" style="ellipse;whiteSpace=wrap;html=1;" vertex="1" parent="1">
          <mxGeometry x="365" y="3090" width="20" height="20" as="geometry" />
        </mxCell>
        <mxCell id="sa7XXo4Z0BAsTt5Hyaze-180" style="edgeStyle=orthogonalEdgeStyle;rounded=0;orthogonalLoop=1;jettySize=auto;html=1;exitX=0.5;exitY=0;exitDx=0;exitDy=0;entryX=0.5;entryY=1;entryDx=0;entryDy=0;fillColor=#008a00;strokeColor=#005700;" edge="1" parent="1" source="sa7XXo4Z0BAsTt5Hyaze-178" target="sa7XXo4Z0BAsTt5Hyaze-174">
          <mxGeometry relative="1" as="geometry" />
        </mxCell>
        <mxCell id="sa7XXo4Z0BAsTt5Hyaze-178" value="+" style="ellipse;whiteSpace=wrap;html=1;" vertex="1" parent="1">
          <mxGeometry x="585" y="3090" width="20" height="20" as="geometry" />
        </mxCell>
        <mxCell id="sa7XXo4Z0BAsTt5Hyaze-183" value="+" style="ellipse;whiteSpace=wrap;html=1;" vertex="1" parent="1">
          <mxGeometry x="145" y="3090" width="20" height="20" as="geometry" />
        </mxCell>
        <mxCell id="sa7XXo4Z0BAsTt5Hyaze-186" value="" style="rounded=0;whiteSpace=wrap;html=1;fillColor=none;" vertex="1" parent="1">
          <mxGeometry x="240" y="3570" width="175" height="120" as="geometry" />
        </mxCell>
        <mxCell id="sa7XXo4Z0BAsTt5Hyaze-225" style="edgeStyle=orthogonalEdgeStyle;rounded=0;orthogonalLoop=1;jettySize=auto;html=1;entryX=0.5;entryY=1;entryDx=0;entryDy=0;dashed=1;" edge="1" parent="1" source="sa7XXo4Z0BAsTt5Hyaze-191" target="sa7XXo4Z0BAsTt5Hyaze-219">
          <mxGeometry relative="1" as="geometry" />
        </mxCell>
        <mxCell id="sa7XXo4Z0BAsTt5Hyaze-191" value="Embedding activations of x&lt;sub&gt;t&lt;/sub&gt;" style="rounded=1;whiteSpace=wrap;html=1;fillColor=#d5e8d4;strokeColor=#82b366;" vertex="1" parent="1">
          <mxGeometry x="270.5" y="3710" width="83" height="50" as="geometry" />
        </mxCell>
        <mxCell id="sa7XXo4Z0BAsTt5Hyaze-203" value="RNN Cell" style="text;html=1;align=center;verticalAlign=middle;whiteSpace=wrap;rounded=0;strokeColor=default;" vertex="1" parent="1">
          <mxGeometry x="240" y="3570" width="175" height="20" as="geometry" />
        </mxCell>
        <mxCell id="sa7XXo4Z0BAsTt5Hyaze-219" value="+" style="ellipse;whiteSpace=wrap;html=1;fillColor=#dae8fc;strokeColor=#6c8ebf;" vertex="1" parent="1">
          <mxGeometry x="302" y="3630" width="20" height="20" as="geometry" />
        </mxCell>
        <mxCell id="sa7XXo4Z0BAsTt5Hyaze-226" style="edgeStyle=orthogonalEdgeStyle;rounded=0;orthogonalLoop=1;jettySize=auto;html=1;entryX=0;entryY=0.5;entryDx=0;entryDy=0;dashed=1;" edge="1" parent="1" source="sa7XXo4Z0BAsTt5Hyaze-222" target="sa7XXo4Z0BAsTt5Hyaze-227">
          <mxGeometry relative="1" as="geometry">
            <mxPoint x="470" y="3640.0000000000005" as="targetPoint" />
          </mxGeometry>
        </mxCell>
        <mxCell id="sa7XXo4Z0BAsTt5Hyaze-222" value="relu" style="ellipse;whiteSpace=wrap;html=1;aspect=fixed;fillColor=#ffe6cc;strokeColor=#d79b00;" vertex="1" parent="1">
          <mxGeometry x="322" y="3622.5" width="35" height="35" as="geometry" />
        </mxCell>
        <mxCell id="sa7XXo4Z0BAsTt5Hyaze-224" style="edgeStyle=orthogonalEdgeStyle;rounded=0;orthogonalLoop=1;jettySize=auto;html=1;exitX=1;exitY=0.5;exitDx=0;exitDy=0;entryX=0;entryY=0.5;entryDx=0;entryDy=0;dashed=1;" edge="1" parent="1" source="sa7XXo4Z0BAsTt5Hyaze-223" target="sa7XXo4Z0BAsTt5Hyaze-219">
          <mxGeometry relative="1" as="geometry" />
        </mxCell>
        <mxCell id="sa7XXo4Z0BAsTt5Hyaze-223" value="h&lt;sub&gt;t-1&lt;/sub&gt;" style="rounded=1;whiteSpace=wrap;html=1;fillColor=#d5e8d4;strokeColor=#82b366;" vertex="1" parent="1">
          <mxGeometry x="170" y="3620" width="50" height="40" as="geometry" />
        </mxCell>
        <mxCell id="sa7XXo4Z0BAsTt5Hyaze-231" style="edgeStyle=orthogonalEdgeStyle;rounded=0;orthogonalLoop=1;jettySize=auto;html=1;exitX=1;exitY=0.5;exitDx=0;exitDy=0;dashed=1;" edge="1" parent="1" source="sa7XXo4Z0BAsTt5Hyaze-227">
          <mxGeometry relative="1" as="geometry">
            <mxPoint x="520" y="3639.8888888888887" as="targetPoint" />
          </mxGeometry>
        </mxCell>
        <mxCell id="sa7XXo4Z0BAsTt5Hyaze-227" value="h&lt;sub&gt;t&lt;/sub&gt;" style="rounded=1;whiteSpace=wrap;html=1;fillColor=#d5e8d4;strokeColor=#82b366;" vertex="1" parent="1">
          <mxGeometry x="440" y="3620" width="50" height="40" as="geometry" />
        </mxCell>
        <mxCell id="sa7XXo4Z0BAsTt5Hyaze-228" value="" style="endArrow=classic;html=1;rounded=0;exitX=0.5;exitY=0;exitDx=0;exitDy=0;dashed=1;" edge="1" parent="1" source="sa7XXo4Z0BAsTt5Hyaze-227">
          <mxGeometry width="50" height="50" relative="1" as="geometry">
            <mxPoint x="455" y="3640" as="sourcePoint" />
            <mxPoint x="465" y="3570" as="targetPoint" />
          </mxGeometry>
        </mxCell>
        <mxCell id="sa7XXo4Z0BAsTt5Hyaze-230" value="To hidden-to-out layer" style="text;html=1;strokeColor=none;fillColor=none;align=center;verticalAlign=middle;whiteSpace=wrap;rounded=0;fontStyle=2" vertex="1" parent="1">
          <mxGeometry x="470" y="3567.5" width="60" height="45" as="geometry" />
        </mxCell>
        <mxCell id="sa7XXo4Z0BAsTt5Hyaze-232" value="To next token" style="text;html=1;strokeColor=none;fillColor=none;align=center;verticalAlign=middle;whiteSpace=wrap;rounded=0;fontStyle=2" vertex="1" parent="1">
          <mxGeometry x="515" y="3617.5" width="60" height="45" as="geometry" />
        </mxCell>
        <mxCell id="sa7XXo4Z0BAsTt5Hyaze-241" value="" style="endArrow=block;html=1;rounded=0;dashed=1;endFill=1;" edge="1" parent="1">
          <mxGeometry width="50" height="50" relative="1" as="geometry">
            <mxPoint y="3705" as="sourcePoint" />
            <mxPoint x="40" y="3705" as="targetPoint" />
          </mxGeometry>
        </mxCell>
        <mxCell id="sa7XXo4Z0BAsTt5Hyaze-242" value="pass values" style="text;html=1;strokeColor=none;fillColor=none;align=center;verticalAlign=middle;whiteSpace=wrap;rounded=0;" vertex="1" parent="1">
          <mxGeometry x="42" y="3690" width="70" height="30" as="geometry" />
        </mxCell>
        <mxCell id="sa7XXo4Z0BAsTt5Hyaze-245" value="" style="rounded=1;whiteSpace=wrap;html=1;fillColor=#d5e8d4;strokeColor=#82b366;" vertex="1" parent="1">
          <mxGeometry y="3580" width="30" height="30" as="geometry" />
        </mxCell>
        <mxCell id="sa7XXo4Z0BAsTt5Hyaze-246" value="" style="ellipse;whiteSpace=wrap;html=1;fillColor=#dae8fc;strokeColor=#6c8ebf;" vertex="1" parent="1">
          <mxGeometry x="7" y="3625" width="20" height="20" as="geometry" />
        </mxCell>
        <mxCell id="sa7XXo4Z0BAsTt5Hyaze-247" value="&lt;span style=&quot;color: rgb(0, 0, 0); font-family: Helvetica; font-size: 12px; font-style: normal; font-variant-ligatures: normal; font-variant-caps: normal; font-weight: 400; letter-spacing: normal; orphans: 2; text-align: center; text-indent: 0px; text-transform: none; widows: 2; word-spacing: 0px; -webkit-text-stroke-width: 0px; background-color: rgb(251, 251, 251); text-decoration-thickness: initial; text-decoration-style: initial; text-decoration-color: initial; float: none; display: inline !important;&quot;&gt;activations&amp;nbsp;&lt;/span&gt;" style="text;whiteSpace=wrap;html=1;" vertex="1" parent="1">
          <mxGeometry x="41" y="3580" width="90" height="30" as="geometry" />
        </mxCell>
        <mxCell id="sa7XXo4Z0BAsTt5Hyaze-248" value="&lt;span style=&quot;color: rgb(0, 0, 0); font-family: Helvetica; font-size: 12px; font-style: normal; font-variant-ligatures: normal; font-variant-caps: normal; font-weight: 400; letter-spacing: normal; orphans: 2; text-align: center; text-indent: 0px; text-transform: none; widows: 2; word-spacing: 0px; -webkit-text-stroke-width: 0px; background-color: rgb(251, 251, 251); text-decoration-thickness: initial; text-decoration-style: initial; text-decoration-color: initial; float: none; display: inline !important;&quot;&gt;element-wise operations&lt;/span&gt;" style="text;whiteSpace=wrap;html=1;" vertex="1" parent="1">
          <mxGeometry x="40" y="3615" width="90" height="30" as="geometry" />
        </mxCell>
        <mxCell id="sa7XXo4Z0BAsTt5Hyaze-250" value="" style="ellipse;whiteSpace=wrap;html=1;fillColor=#ffe6cc;strokeColor=#d79b00;" vertex="1" parent="1">
          <mxGeometry x="7" y="3661" width="20" height="20" as="geometry" />
        </mxCell>
        <mxCell id="sa7XXo4Z0BAsTt5Hyaze-251" value="&lt;span style=&quot;color: rgb(0, 0, 0); font-family: Helvetica; font-size: 12px; font-style: normal; font-variant-ligatures: normal; font-variant-caps: normal; font-weight: 400; letter-spacing: normal; orphans: 2; text-align: center; text-indent: 0px; text-transform: none; widows: 2; word-spacing: 0px; -webkit-text-stroke-width: 0px; background-color: rgb(251, 251, 251); text-decoration-thickness: initial; text-decoration-style: initial; text-decoration-color: initial; float: none; display: inline !important;&quot;&gt;linear layer + non-linearity&lt;/span&gt;" style="text;whiteSpace=wrap;html=1;" vertex="1" parent="1">
          <mxGeometry x="40" y="3655" width="90" height="30" as="geometry" />
        </mxCell>
        <mxCell id="sa7XXo4Z0BAsTt5Hyaze-253" style="edgeStyle=orthogonalEdgeStyle;rounded=0;orthogonalLoop=1;jettySize=auto;html=1;entryX=0.5;entryY=1;entryDx=0;entryDy=0;dashed=1;" edge="1" source="sa7XXo4Z0BAsTt5Hyaze-254" target="sa7XXo4Z0BAsTt5Hyaze-256" parent="1">
          <mxGeometry relative="1" as="geometry" />
        </mxCell>
        <mxCell id="sa7XXo4Z0BAsTt5Hyaze-254" value="Embedding activations of x&lt;sub&gt;t&lt;/sub&gt;" style="rounded=1;whiteSpace=wrap;html=1;fillColor=#d5e8d4;strokeColor=#82b366;" vertex="1" parent="1">
          <mxGeometry x="270.5" y="4120" width="79.5" height="50" as="geometry" />
        </mxCell>
        <mxCell id="sa7XXo4Z0BAsTt5Hyaze-255" value="LSTM Cell" style="text;html=1;align=center;verticalAlign=middle;whiteSpace=wrap;rounded=0;strokeColor=default;" vertex="1" parent="1">
          <mxGeometry x="240" y="3860" width="430" height="20" as="geometry" />
        </mxCell>
        <mxCell id="sa7XXo4Z0BAsTt5Hyaze-283" style="edgeStyle=orthogonalEdgeStyle;rounded=0;orthogonalLoop=1;jettySize=auto;html=1;dashed=1;" edge="1" parent="1" source="sa7XXo4Z0BAsTt5Hyaze-256" target="sa7XXo4Z0BAsTt5Hyaze-282">
          <mxGeometry relative="1" as="geometry" />
        </mxCell>
        <mxCell id="sa7XXo4Z0BAsTt5Hyaze-316" style="edgeStyle=orthogonalEdgeStyle;rounded=0;orthogonalLoop=1;jettySize=auto;html=1;dashed=1;" edge="1" parent="1" source="sa7XXo4Z0BAsTt5Hyaze-256" target="sa7XXo4Z0BAsTt5Hyaze-275">
          <mxGeometry relative="1" as="geometry" />
        </mxCell>
        <mxCell id="sa7XXo4Z0BAsTt5Hyaze-256" value="concat" style="ellipse;whiteSpace=wrap;html=1;fillColor=#dae8fc;strokeColor=#6c8ebf;" vertex="1" parent="1">
          <mxGeometry x="292" y="4030" width="38" height="40" as="geometry" />
        </mxCell>
        <mxCell id="sa7XXo4Z0BAsTt5Hyaze-259" style="edgeStyle=orthogonalEdgeStyle;rounded=0;orthogonalLoop=1;jettySize=auto;html=1;exitX=1;exitY=0.5;exitDx=0;exitDy=0;entryX=0;entryY=0.5;entryDx=0;entryDy=0;dashed=1;" edge="1" source="sa7XXo4Z0BAsTt5Hyaze-260" target="sa7XXo4Z0BAsTt5Hyaze-256" parent="1">
          <mxGeometry relative="1" as="geometry" />
        </mxCell>
        <mxCell id="sa7XXo4Z0BAsTt5Hyaze-260" value="h&lt;sub&gt;t-1&lt;/sub&gt;" style="rounded=1;whiteSpace=wrap;html=1;fillColor=#d5e8d4;strokeColor=#82b366;" vertex="1" parent="1">
          <mxGeometry x="160" y="4030" width="50" height="40" as="geometry" />
        </mxCell>
        <mxCell id="sa7XXo4Z0BAsTt5Hyaze-308" style="edgeStyle=orthogonalEdgeStyle;rounded=0;orthogonalLoop=1;jettySize=auto;html=1;dashed=1;" edge="1" parent="1" source="sa7XXo4Z0BAsTt5Hyaze-262">
          <mxGeometry relative="1" as="geometry">
            <mxPoint x="830" y="4050" as="targetPoint" />
          </mxGeometry>
        </mxCell>
        <mxCell id="sa7XXo4Z0BAsTt5Hyaze-262" value="h&lt;sub&gt;t&lt;/sub&gt;" style="rounded=1;whiteSpace=wrap;html=1;fillColor=#d5e8d4;strokeColor=#82b366;" vertex="1" parent="1">
          <mxGeometry x="705" y="4030" width="50" height="40" as="geometry" />
        </mxCell>
        <mxCell id="sa7XXo4Z0BAsTt5Hyaze-263" value="" style="endArrow=classic;html=1;rounded=0;exitX=0.5;exitY=0;exitDx=0;exitDy=0;dashed=1;" edge="1" source="sa7XXo4Z0BAsTt5Hyaze-262" parent="1">
          <mxGeometry width="50" height="50" relative="1" as="geometry">
            <mxPoint x="455" y="4040" as="sourcePoint" />
            <mxPoint x="730" y="3990" as="targetPoint" />
          </mxGeometry>
        </mxCell>
        <mxCell id="sa7XXo4Z0BAsTt5Hyaze-264" value="To hidden-to-out layer" style="text;html=1;strokeColor=none;fillColor=none;align=center;verticalAlign=middle;whiteSpace=wrap;rounded=0;fontStyle=2" vertex="1" parent="1">
          <mxGeometry x="740" y="3980" width="60" height="45" as="geometry" />
        </mxCell>
        <mxCell id="sa7XXo4Z0BAsTt5Hyaze-265" value="To next token" style="text;html=1;strokeColor=none;fillColor=none;align=center;verticalAlign=middle;whiteSpace=wrap;rounded=0;fontStyle=2" vertex="1" parent="1">
          <mxGeometry x="780" y="4045" width="60" height="45" as="geometry" />
        </mxCell>
        <mxCell id="sa7XXo4Z0BAsTt5Hyaze-266" value="" style="endArrow=block;html=1;rounded=0;dashed=1;endFill=1;" edge="1" parent="1">
          <mxGeometry width="50" height="50" relative="1" as="geometry">
            <mxPoint y="4015" as="sourcePoint" />
            <mxPoint x="40" y="4015" as="targetPoint" />
          </mxGeometry>
        </mxCell>
        <mxCell id="sa7XXo4Z0BAsTt5Hyaze-267" value="pass values" style="text;html=1;strokeColor=none;fillColor=none;align=center;verticalAlign=middle;whiteSpace=wrap;rounded=0;" vertex="1" parent="1">
          <mxGeometry x="42" y="4000" width="70" height="30" as="geometry" />
        </mxCell>
        <mxCell id="sa7XXo4Z0BAsTt5Hyaze-268" value="" style="rounded=1;whiteSpace=wrap;html=1;fillColor=#d5e8d4;strokeColor=#82b366;" vertex="1" parent="1">
          <mxGeometry y="3890" width="30" height="30" as="geometry" />
        </mxCell>
        <mxCell id="sa7XXo4Z0BAsTt5Hyaze-269" value="" style="ellipse;whiteSpace=wrap;html=1;fillColor=#dae8fc;strokeColor=#6c8ebf;" vertex="1" parent="1">
          <mxGeometry x="7" y="3935" width="20" height="20" as="geometry" />
        </mxCell>
        <mxCell id="sa7XXo4Z0BAsTt5Hyaze-270" value="&lt;span style=&quot;color: rgb(0, 0, 0); font-family: Helvetica; font-size: 12px; font-style: normal; font-variant-ligatures: normal; font-variant-caps: normal; font-weight: 400; letter-spacing: normal; orphans: 2; text-align: center; text-indent: 0px; text-transform: none; widows: 2; word-spacing: 0px; -webkit-text-stroke-width: 0px; background-color: rgb(251, 251, 251); text-decoration-thickness: initial; text-decoration-style: initial; text-decoration-color: initial; float: none; display: inline !important;&quot;&gt;activations&amp;nbsp;&lt;/span&gt;" style="text;whiteSpace=wrap;html=1;" vertex="1" parent="1">
          <mxGeometry x="41" y="3890" width="90" height="30" as="geometry" />
        </mxCell>
        <mxCell id="sa7XXo4Z0BAsTt5Hyaze-271" value="&lt;span style=&quot;color: rgb(0, 0, 0); font-family: Helvetica; font-size: 12px; font-style: normal; font-variant-ligatures: normal; font-variant-caps: normal; font-weight: 400; letter-spacing: normal; orphans: 2; text-align: center; text-indent: 0px; text-transform: none; widows: 2; word-spacing: 0px; -webkit-text-stroke-width: 0px; background-color: rgb(251, 251, 251); text-decoration-thickness: initial; text-decoration-style: initial; text-decoration-color: initial; float: none; display: inline !important;&quot;&gt;element-wise operations&lt;/span&gt;" style="text;whiteSpace=wrap;html=1;" vertex="1" parent="1">
          <mxGeometry x="40" y="3925" width="90" height="30" as="geometry" />
        </mxCell>
        <mxCell id="sa7XXo4Z0BAsTt5Hyaze-272" value="" style="ellipse;whiteSpace=wrap;html=1;fillColor=#ffe6cc;strokeColor=#d79b00;" vertex="1" parent="1">
          <mxGeometry x="7" y="3971" width="20" height="20" as="geometry" />
        </mxCell>
        <mxCell id="sa7XXo4Z0BAsTt5Hyaze-273" value="&lt;span style=&quot;color: rgb(0, 0, 0); font-family: Helvetica; font-size: 12px; font-style: normal; font-variant-ligatures: normal; font-variant-caps: normal; font-weight: 400; letter-spacing: normal; orphans: 2; text-align: center; text-indent: 0px; text-transform: none; widows: 2; word-spacing: 0px; -webkit-text-stroke-width: 0px; background-color: rgb(251, 251, 251); text-decoration-thickness: initial; text-decoration-style: initial; text-decoration-color: initial; float: none; display: inline !important;&quot;&gt;linear layer + non-linearity&lt;/span&gt;" style="text;whiteSpace=wrap;html=1;" vertex="1" parent="1">
          <mxGeometry x="40" y="3965" width="90" height="30" as="geometry" />
        </mxCell>
        <mxCell id="sa7XXo4Z0BAsTt5Hyaze-286" style="edgeStyle=orthogonalEdgeStyle;rounded=0;orthogonalLoop=1;jettySize=auto;html=1;entryX=0;entryY=0.5;entryDx=0;entryDy=0;dashed=1;" edge="1" parent="1" source="sa7XXo4Z0BAsTt5Hyaze-274" target="sa7XXo4Z0BAsTt5Hyaze-285">
          <mxGeometry relative="1" as="geometry" />
        </mxCell>
        <mxCell id="sa7XXo4Z0BAsTt5Hyaze-274" value="c&lt;sub&gt;t-1&lt;/sub&gt;" style="rounded=1;whiteSpace=wrap;html=1;fillColor=#d5e8d4;strokeColor=#82b366;" vertex="1" parent="1">
          <mxGeometry x="160" y="3890" width="50" height="40" as="geometry" />
        </mxCell>
        <mxCell id="sa7XXo4Z0BAsTt5Hyaze-287" style="edgeStyle=orthogonalEdgeStyle;rounded=0;orthogonalLoop=1;jettySize=auto;html=1;entryX=0.5;entryY=1;entryDx=0;entryDy=0;dashed=1;" edge="1" parent="1" source="sa7XXo4Z0BAsTt5Hyaze-275" target="sa7XXo4Z0BAsTt5Hyaze-285">
          <mxGeometry relative="1" as="geometry" />
        </mxCell>
        <mxCell id="sa7XXo4Z0BAsTt5Hyaze-275" value="&lt;span style=&quot;color: rgb(32, 33, 34); font-size: 14px; text-align: start;&quot;&gt;σ&lt;/span&gt;" style="ellipse;whiteSpace=wrap;html=1;aspect=fixed;fillColor=#ffe6cc;strokeColor=#d79b00;" vertex="1" parent="1">
          <mxGeometry x="291" y="3970" width="40" height="40" as="geometry" />
        </mxCell>
        <mxCell id="sa7XXo4Z0BAsTt5Hyaze-284" style="edgeStyle=orthogonalEdgeStyle;rounded=0;orthogonalLoop=1;jettySize=auto;html=1;dashed=1;exitX=1;exitY=0.5;exitDx=0;exitDy=0;" edge="1" parent="1" source="sa7XXo4Z0BAsTt5Hyaze-302" target="sa7XXo4Z0BAsTt5Hyaze-262">
          <mxGeometry relative="1" as="geometry" />
        </mxCell>
        <mxCell id="sa7XXo4Z0BAsTt5Hyaze-282" value="&lt;span style=&quot;color: rgb(32, 33, 34); font-size: 14px; text-align: start;&quot;&gt;σ&lt;/span&gt;" style="ellipse;whiteSpace=wrap;html=1;aspect=fixed;fillColor=#ffe6cc;strokeColor=#d79b00;" vertex="1" parent="1">
          <mxGeometry x="540" y="4030" width="40" height="40" as="geometry" />
        </mxCell>
        <mxCell id="sa7XXo4Z0BAsTt5Hyaze-299" style="edgeStyle=orthogonalEdgeStyle;rounded=0;orthogonalLoop=1;jettySize=auto;html=1;exitX=1;exitY=0.5;exitDx=0;exitDy=0;entryX=0;entryY=0.5;entryDx=0;entryDy=0;dashed=1;" edge="1" parent="1" source="sa7XXo4Z0BAsTt5Hyaze-285" target="sa7XXo4Z0BAsTt5Hyaze-297">
          <mxGeometry relative="1" as="geometry" />
        </mxCell>
        <mxCell id="sa7XXo4Z0BAsTt5Hyaze-285" value="x" style="ellipse;whiteSpace=wrap;html=1;fillColor=#dae8fc;strokeColor=#6c8ebf;" vertex="1" parent="1">
          <mxGeometry x="300" y="3900" width="20" height="20" as="geometry" />
        </mxCell>
        <mxCell id="sa7XXo4Z0BAsTt5Hyaze-290" value="" style="endArrow=classic;html=1;rounded=0;entryX=0.5;entryY=1;entryDx=0;entryDy=0;dashed=1;" edge="1" parent="1" target="sa7XXo4Z0BAsTt5Hyaze-291">
          <mxGeometry width="50" height="50" relative="1" as="geometry">
            <mxPoint x="400" y="4050" as="sourcePoint" />
            <mxPoint x="400" y="4000" as="targetPoint" />
          </mxGeometry>
        </mxCell>
        <mxCell id="sa7XXo4Z0BAsTt5Hyaze-296" style="edgeStyle=orthogonalEdgeStyle;rounded=0;orthogonalLoop=1;jettySize=auto;html=1;exitX=0.5;exitY=0;exitDx=0;exitDy=0;entryX=0;entryY=0.5;entryDx=0;entryDy=0;dashed=1;" edge="1" parent="1" source="sa7XXo4Z0BAsTt5Hyaze-291" target="sa7XXo4Z0BAsTt5Hyaze-294">
          <mxGeometry relative="1" as="geometry" />
        </mxCell>
        <mxCell id="sa7XXo4Z0BAsTt5Hyaze-291" value="&lt;span style=&quot;color: rgb(32, 33, 34); font-size: 14px; text-align: start;&quot;&gt;σ&lt;/span&gt;" style="ellipse;whiteSpace=wrap;html=1;aspect=fixed;fillColor=#ffe6cc;strokeColor=#d79b00;" vertex="1" parent="1">
          <mxGeometry x="380" y="3970" width="40" height="40" as="geometry" />
        </mxCell>
        <mxCell id="sa7XXo4Z0BAsTt5Hyaze-295" style="edgeStyle=orthogonalEdgeStyle;rounded=0;orthogonalLoop=1;jettySize=auto;html=1;exitX=0.5;exitY=0;exitDx=0;exitDy=0;entryX=0.5;entryY=1;entryDx=0;entryDy=0;" edge="1" parent="1" source="sa7XXo4Z0BAsTt5Hyaze-292" target="sa7XXo4Z0BAsTt5Hyaze-294">
          <mxGeometry relative="1" as="geometry" />
        </mxCell>
        <mxCell id="sa7XXo4Z0BAsTt5Hyaze-292" value="&lt;span style=&quot;color: rgb(32, 33, 34); font-size: 14px; text-align: start;&quot;&gt;tanh&lt;/span&gt;" style="ellipse;whiteSpace=wrap;html=1;aspect=fixed;fillColor=#ffe6cc;strokeColor=#d79b00;" vertex="1" parent="1">
          <mxGeometry x="470" y="3970" width="40" height="40" as="geometry" />
        </mxCell>
        <mxCell id="sa7XXo4Z0BAsTt5Hyaze-293" value="" style="endArrow=classic;html=1;rounded=0;entryX=0.5;entryY=1;entryDx=0;entryDy=0;dashed=1;" edge="1" parent="1">
          <mxGeometry width="50" height="50" relative="1" as="geometry">
            <mxPoint x="490" y="4050" as="sourcePoint" />
            <mxPoint x="490" y="4010" as="targetPoint" />
          </mxGeometry>
        </mxCell>
        <mxCell id="sa7XXo4Z0BAsTt5Hyaze-298" style="edgeStyle=orthogonalEdgeStyle;rounded=0;orthogonalLoop=1;jettySize=auto;html=1;entryX=0.5;entryY=1;entryDx=0;entryDy=0;" edge="1" parent="1" source="sa7XXo4Z0BAsTt5Hyaze-294" target="sa7XXo4Z0BAsTt5Hyaze-297">
          <mxGeometry relative="1" as="geometry" />
        </mxCell>
        <mxCell id="sa7XXo4Z0BAsTt5Hyaze-294" value="x" style="ellipse;whiteSpace=wrap;html=1;fillColor=#dae8fc;strokeColor=#6c8ebf;" vertex="1" parent="1">
          <mxGeometry x="480" y="3940" width="20" height="20" as="geometry" />
        </mxCell>
        <mxCell id="sa7XXo4Z0BAsTt5Hyaze-300" style="edgeStyle=orthogonalEdgeStyle;rounded=0;orthogonalLoop=1;jettySize=auto;html=1;exitX=1;exitY=0.5;exitDx=0;exitDy=0;entryX=0;entryY=0.5;entryDx=0;entryDy=0;dashed=1;" edge="1" parent="1" source="sa7XXo4Z0BAsTt5Hyaze-297" target="sa7XXo4Z0BAsTt5Hyaze-301">
          <mxGeometry relative="1" as="geometry">
            <mxPoint x="690" y="3910.235294117647" as="targetPoint" />
          </mxGeometry>
        </mxCell>
        <mxCell id="sa7XXo4Z0BAsTt5Hyaze-297" value="+" style="ellipse;whiteSpace=wrap;html=1;fillColor=#dae8fc;strokeColor=#6c8ebf;" vertex="1" parent="1">
          <mxGeometry x="480" y="3900" width="20" height="20" as="geometry" />
        </mxCell>
        <mxCell id="sa7XXo4Z0BAsTt5Hyaze-309" style="edgeStyle=orthogonalEdgeStyle;rounded=0;orthogonalLoop=1;jettySize=auto;html=1;dashed=1;" edge="1" parent="1" source="sa7XXo4Z0BAsTt5Hyaze-301">
          <mxGeometry relative="1" as="geometry">
            <mxPoint x="830" y="3910" as="targetPoint" />
          </mxGeometry>
        </mxCell>
        <mxCell id="sa7XXo4Z0BAsTt5Hyaze-301" value="c&lt;sub&gt;t&lt;/sub&gt;" style="rounded=1;whiteSpace=wrap;html=1;fillColor=#d5e8d4;strokeColor=#82b366;" vertex="1" parent="1">
          <mxGeometry x="705" y="3890" width="50" height="40" as="geometry" />
        </mxCell>
        <mxCell id="sa7XXo4Z0BAsTt5Hyaze-302" value="x" style="ellipse;whiteSpace=wrap;html=1;fillColor=#dae8fc;strokeColor=#6c8ebf;" vertex="1" parent="1">
          <mxGeometry x="610" y="4040" width="20" height="20" as="geometry" />
        </mxCell>
        <mxCell id="sa7XXo4Z0BAsTt5Hyaze-304" value="" style="endArrow=classic;html=1;rounded=0;dashed=1;" edge="1" parent="1" target="sa7XXo4Z0BAsTt5Hyaze-305">
          <mxGeometry width="50" height="50" relative="1" as="geometry">
            <mxPoint x="620" y="3910" as="sourcePoint" />
            <mxPoint x="620" y="3960" as="targetPoint" />
          </mxGeometry>
        </mxCell>
        <mxCell id="sa7XXo4Z0BAsTt5Hyaze-306" style="edgeStyle=orthogonalEdgeStyle;rounded=0;orthogonalLoop=1;jettySize=auto;html=1;exitX=0.5;exitY=1;exitDx=0;exitDy=0;entryX=0.5;entryY=0;entryDx=0;entryDy=0;dashed=1;" edge="1" parent="1" source="sa7XXo4Z0BAsTt5Hyaze-305" target="sa7XXo4Z0BAsTt5Hyaze-302">
          <mxGeometry relative="1" as="geometry" />
        </mxCell>
        <mxCell id="sa7XXo4Z0BAsTt5Hyaze-305" value="tanh" style="ellipse;whiteSpace=wrap;html=1;fillColor=#dae8fc;strokeColor=#6c8ebf;" vertex="1" parent="1">
          <mxGeometry x="600" y="3970" width="40" height="40" as="geometry" />
        </mxCell>
        <mxCell id="sa7XXo4Z0BAsTt5Hyaze-307" style="edgeStyle=orthogonalEdgeStyle;rounded=0;orthogonalLoop=1;jettySize=auto;html=1;entryX=0;entryY=0.5;entryDx=0;entryDy=0;dashed=1;" edge="1" parent="1" source="sa7XXo4Z0BAsTt5Hyaze-282" target="sa7XXo4Z0BAsTt5Hyaze-302">
          <mxGeometry relative="1" as="geometry" />
        </mxCell>
        <mxCell id="sa7XXo4Z0BAsTt5Hyaze-310" value="To next token" style="text;html=1;strokeColor=none;fillColor=none;align=center;verticalAlign=middle;whiteSpace=wrap;rounded=0;fontStyle=2" vertex="1" parent="1">
          <mxGeometry x="780" y="3905" width="60" height="45" as="geometry" />
        </mxCell>
        <mxCell id="sa7XXo4Z0BAsTt5Hyaze-311" value="&lt;span style=&quot;color: rgb(0, 0, 0); font-family: Helvetica; font-size: 12px; font-variant-ligatures: normal; font-variant-caps: normal; font-weight: 400; letter-spacing: normal; orphans: 2; text-align: center; text-indent: 0px; text-transform: none; widows: 2; word-spacing: 0px; -webkit-text-stroke-width: 0px; text-decoration-thickness: initial; text-decoration-style: initial; text-decoration-color: initial; float: none; display: inline !important;&quot;&gt;&lt;i&gt;forget &lt;br&gt;gate&lt;/i&gt;&lt;/span&gt;" style="text;whiteSpace=wrap;html=1;fillColor=none;" vertex="1" parent="1">
          <mxGeometry x="255" y="3960" width="45" height="40" as="geometry" />
        </mxCell>
        <mxCell id="sa7XXo4Z0BAsTt5Hyaze-312" value="&lt;div style=&quot;text-align: center;&quot;&gt;&lt;span style=&quot;background-color: initial;&quot;&gt;&lt;i&gt;input&lt;/i&gt;&lt;/span&gt;&lt;/div&gt;&lt;div style=&quot;text-align: center;&quot;&gt;&lt;span style=&quot;background-color: initial;&quot;&gt;&lt;i&gt;gate&lt;/i&gt;&lt;/span&gt;&lt;/div&gt;" style="text;whiteSpace=wrap;html=1;fillColor=none;" vertex="1" parent="1">
          <mxGeometry x="350" y="3960" width="45" height="40" as="geometry" />
        </mxCell>
        <mxCell id="sa7XXo4Z0BAsTt5Hyaze-313" value="&lt;div style=&quot;text-align: center;&quot;&gt;&lt;i&gt;cell gate&lt;/i&gt;&lt;/div&gt;" style="text;whiteSpace=wrap;html=1;fillColor=none;" vertex="1" parent="1">
          <mxGeometry x="431" y="3960" width="45" height="40" as="geometry" />
        </mxCell>
        <mxCell id="sa7XXo4Z0BAsTt5Hyaze-314" value="&lt;div style=&quot;text-align: center;&quot;&gt;&lt;i&gt;output gate&lt;/i&gt;&lt;/div&gt;" style="text;whiteSpace=wrap;html=1;fillColor=none;" vertex="1" parent="1">
          <mxGeometry x="498" y="4050" width="45" height="40" as="geometry" />
        </mxCell>
      </root>
    </mxGraphModel>
  </diagram>
</mxfile>
